ply
format ascii 1.0
element vertex 1003
property float x
property float y
property float z
property uchar red
property uchar green
property uchar blue
end_header
-40.000 -40.000 -40.000 197 0 0
-40.000 -40.000 -32.000 194 0 0
-40.000 -40.000 -24.000 190 0 0
-40.000 -40.000 -16.000 189 0 0
-40.000 -40.000 -8.000 187 0 0
-40.000 -40.000 0.000 133 0 0
-40.000 -40.000 8.000 136 0 0
-40.000 -40.000 16.000 127 0 0
-40.000 -40.000 24.000 127 0 0
-40.000 -40.000 32.000 126 0 0
-40.000 -32.000 -40.000 189 0 0
-40.000 -32.000 -32.000 197 0 0
-40.000 -32.000 -24.000 198 0 0
-40.000 -32.000 -16.000 200 0 0
-40.000 -32.000 -8.000 200 0 0
-40.000 -32.000 0.000 156 0 0
-40.000 -32.000 8.000 141 0 0
-40.000 -32.000 16.000 127 0 0
-40.000 -32.000 24.000 126 0 0
-40.000 -32.000 32.000 127 0 0
-40.000 -24.000 -40.000 179 0 0
-40.000 -24.000 -32.000 182 0 0
-40.000 -24.000 -24.000 189 0 0
-40.000 -24.000 -16.000 193 0 0
-40.000 -24.000 -8.000 197 0 0
-40.000 -24.000 0.000 166 0 0
-40.000 -24.000 8.000 157 0 0
-40.000 -24.000 16.000 136 0 0
-40.000 -24.000 24.000 133 0 0
-40.000 -24.000 32.000 128 0 0
-40.000 -16.000 -40.000 195 0 0
-40.000 -16.000 -32.000 190 0 0
-40.000 -16.000 -24.000 184 0 0
-40.000 -16.000 -16.000 179 0 0
-40.000 -16.000 -8.000 180 0 0
-40.000 -16.000 0.000 169 0 0
-40.000 -16.000 8.000 170 0 0
-40.000 -16.000 16.000 154 0 0
-40.000 -16.000 24.000 147 0 0
-40.000 -16.000 32.000 141 0 0
-40.000 -8.000 -40.000 259 0 0
-40.000 -8.000 -32.000 249 0 0
-40.000 -8.000 -24.000 236 0 0
-40.000 -8.000 -16.000 221 0 0
-40.000 -8.000 -8.000 202 0 0
-40.000 -8.000 0.000 184 0 0
-40.000 -8.000 8.000 183 0 0
-40.000 -8.000 16.000 170 0 0
-40.000 -8.000 24.000 170 0 0
-40.000 -8.000 32.000 161 0 0
-40.000 0.000 -40.000 86 0 0
-40.000 0.000 -32.000 85 0 0
-40.000 0.000 -24.000 83 0 0
-40.000 0.000 -16.000 79 0 0
-40.000 0.000 -8.000 62 0 0
-40.000 0.000 0.000 55 0 0
-40.000 0.000 8.000 93 0 0
-40.000 0.000 16.000 75 0 0
-40.000 0.000 24.000 71 0 0
-40.000 0.000 32.000 78 0 0
-40.000 8.000 -40.000 192 0 0
-40.000 8.000 -32.000 178 0 0
-40.000 8.000 -24.000 166 0 0
-40.000 8.000 -16.000 148 0 0
-40.000 8.000 -8.000 114 0 0
-40.000 8.000 0.000 113 0 0
-40.000 8.000 8.000 146 0 0
-40.000 8.000 16.000 108 0 0
-40.000 8.000 24.000 96 0 0
-40.000 8.000 32.000 87 0 0
-40.000 16.000 -40.000 116 0 0
-40.000 16.000 -32.000 109 0 0
-40.000 16.000 -24.000 99 0 0
-40.000 16.000 -16.000 84 0 0
-40.000 16.000 -8.000 70 0 0
-40.000 16.000 0.000 64 0 0
-40.000 16.000 8.000 134 0 0
-40.000 16.000 16.000 97 0 0
-40.000 16.000 24.000 86 0 0
-40.000 16.000 32.000 81 0 0
-40.000 24.000 -40.000 86 0 0
-40.000 24.000 -32.000 81 0 0
-40.000 24.000 -24.000 74 0 0
-40.000 24.000 -16.000 61 0 0
-40.000 24.000 -8.000 73 0 0
-40.000 24.000 0.000 59 0 0
-40.000 24.000 8.000 144 0 0
-40.000 24.000 16.000 88 0 0
-40.000 24.000 24.000 76 0 0
-40.000 24.000 32.000 71 0 0
-40.000 32.000 -40.000 74 0 0
-40.000 32.000 -32.000 73 0 0
-40.000 32.000 -24.000 68 0 0
-40.000 32.000 -16.000 57 0 0
-40.000 32.000 -8.000 88 0 0
-40.000 32.000 0.000 49 0 0
-40.000 32.000 8.000 121 0 0
-40.000 32.000 16.000 82 0 0
-40.000 32.000 24.000 72 0 0
-40.000 32.000 32.000 69 0 0
-32.000 -40.000 -40.000 197 0 0
-32.000 -40.000 -32.000 189 0 0
-32.000 -40.000 -24.000 179 0 0
-32.000 -40.000 -16.000 172 0 0
-32.000 -40.000 -8.000 172 0 0
-32.000 -40.000 0.000 133 0 0
-32.000 -40.000 8.000 132 0 0
-32.000 -40.000 16.000 127 0 0
-32.000 -40.000 24.000 127 0 0
-32.000 -40.000 32.000 127 0 0
-32.000 -32.000 -40.000 193 0 0
-32.000 -32.000 -32.000 195 0 0
-32.000 -32.000 -24.000 193 0 0
-32.000 -32.000 -16.000 187 0 0
-32.000 -32.000 -8.000 185 0 0
-32.000 -32.000 0.000 134 0 0
-32.000 -32.000 8.000 132 0 0
-32.000 -32.000 16.000 126 0 0
-32.000 -32.000 24.000 127 0 0
-32.000 -32.000 32.000 127 0 0
-32.000 -24.000 -40.000 184 0 0
-32.000 -24.000 -32.000 188 0 0
-32.000 -24.000 -24.000 194 0 0
-32.000 -24.000 -16.000 198 0 0
-32.000 -24.000 -8.000 199 0 0
-32.000 -24.000 0.000 152 0 0
-32.000 -24.000 8.000 136 0 0
-32.000 -24.000 16.000 127 0 0
-32.000 -24.000 24.000 127 0 0
-32.000 -24.000 32.000 127 0 0
-32.000 -16.000 -40.000 189 0 0
-32.000 -16.000 -32.000 183 0 0
-32.000 -16.000 -24.000 180 0 0
-32.000 -16.000 -16.000 179 0 0
-32.000 -16.000 -8.000 187 0 0
-32.000 -16.000 0.000 167 0 0
-32.000 -16.000 8.000 154 0 0
-32.000 -16.000 16.000 142 0 0
-32.000 -16.000 24.000 137 0 0
-32.000 -16.000 32.000 130 0 0
-32.000 -8.000 -40.000 245 0 0
-32.000 -8.000 -32.000 231 0 0
-32.000 -8.000 -24.000 222 0 0
-32.000 -8.000 -16.000 208 0 0
-32.000 -8.000 -8.000 191 0 0
-32.000 -8.000 0.000 171 0 0
-32.000 -8.000 8.000 168 0 0
-32.000 -8.000 16.000 166 0 0
-32.000 -8.000 24.000 158 0 0
-32.000 -8.000 32.000 146 0 0
-32.000 0.000 -40.000 84 0 0
-32.000 0.000 -32.000 85 0 0
-32.000 0.000 -24.000 85 0 0
-32.000 0.000 -16.000 82 0 0
-32.000 0.000 -8.000 69 0 0
-32.000 0.000 0.000 53 0 0
-32.000 0.000 8.000 84 0 0
-32.000 0.000 16.000 73 0 0
-32.000 0.000 24.000 74 0 0
-32.000 0.000 32.000 96 0 0
-32.000 8.000 -40.000 174 0 0
-32.000 8.000 -32.000 162 0 0
-32.000 8.000 -24.000 149 0 0
-32.000 8.000 -16.000 134 0 0
-32.000 8.000 -8.000 103 0 0
-32.000 8.000 0.000 94 0 0
-32.000 8.000 8.000 121 0 0
-32.000 8.000 16.000 94 0 0
-32.000 8.000 24.000 89 0 0
-32.000 8.000 32.000 81 0 0
-32.000 16.000 -40.000 105 0 0
-32.000 16.000 -32.000 99 0 0
-32.000 16.000 -24.000 90 0 0
-32.000 16.000 -16.000 77 0 0
-32.000 16.000 -8.000 51 0 0
-32.000 16.000 0.000 60 0 0
-32.000 16.000 8.000 117 0 0
-32.000 16.000 16.000 85 0 0
-32.000 16.000 24.000 79 0 0
-32.000 16.000 32.000 72 0 0
-32.000 24.000 -40.000 79 0 0
-32.000 24.000 -32.000 76 0 0
-32.000 24.000 -24.000 72 0 0
-32.000 24.000 -16.000 64 0 0
-32.000 24.000 -8.000 57 0 0
-32.000 24.000 0.000 53 0 0
-32.000 24.000 8.000 104 0 0
-32.000 24.000 16.000 76 0 0
-32.000 24.000 24.000 70 0 0
-32.000 24.000 32.000 69 0 0
-32.000 32.000 -40.000 71 0 0
-32.000 32.000 -32.000 71 0 0
-32.000 32.000 -24.000 68 0 0
-32.000 32.000 -16.000 59 0 0
-32.000 32.000 -8.000 53 0 0
-32.000 32.000 0.000 44 0 0
-32.000 32.000 8.000 101 0 0
-32.000 32.000 16.000 76 0 0
-32.000 32.000 24.000 70 0 0
-32.000 32.000 32.000 68 0 0
-24.000 -40.000 -40.000 208 0 0
-24.000 -40.000 -32.000 177 0 0
-24.000 -40.000 -24.000 169 0 0
-24.000 -40.000 -16.000 170 0 0
-24.000 -40.000 -8.000 172 0 0
-24.000 -40.000 0.000 130 0 0
-24.000 -40.000 8.000 131 0 0
-24.000 -40.000 16.000 127 0 0
-24.000 -40.000 24.000 127 0 0
-24.000 -40.000 32.000 127 0 0
-24.000 -32.000 -40.000 222 0 0
-24.000 -32.000 -32.000 196 0 0
-24.000 -32.000 -24.000 180 0 0
-24.000 -32.000 -16.000 171 0 0
-24.000 -32.000 -8.000 171 0 0
-24.000 -32.000 0.000 129 0 0
-24.000 -32.000 8.000 129 0 0
-24.000 -32.000 16.000 127 0 0
-24.000 -32.000 24.000 127 0 0
-24.000 -32.000 32.000 127 0 0
-24.000 -24.000 -40.000 201 0 0
-24.000 -24.000 -32.000 196 0 0
-24.000 -24.000 -24.000 201 0 0
-24.000 -24.000 -16.000 200 0 0
-24.000 -24.000 -8.000 182 0 0
-24.000 -24.000 0.000 130 0 0
-24.000 -24.000 8.000 128 0 0
-24.000 -24.000 16.000 126 0 0
-24.000 -24.000 24.000 127 0 0
-24.000 -24.000 32.000 126 0 0
-24.000 -16.000 -40.000 189 0 0
-24.000 -16.000 -32.000 181 0 0
-24.000 -16.000 -24.000 184 0 0
-24.000 -16.000 -16.000 192 0 0
-24.000 -16.000 -8.000 193 0 0
-24.000 -16.000 0.000 167 0 0
-24.000 -16.000 8.000 133 0 0
-24.000 -16.000 16.000 127 0 0
-24.000 -16.000 24.000 126 0 0
-24.000 -16.000 32.000 126 0 0
-24.000 -8.000 -40.000 233 0 0
-24.000 -8.000 -32.000 218 0 0
-24.000 -8.000 -24.000 208 0 0
-24.000 -8.000 -16.000 196 0 0
-24.000 -8.000 -8.000 184 0 0
-24.000 -8.000 0.000 163 0 0
-24.000 -8.000 8.000 164 0 0
-24.000 -8.000 16.000 153 0 0
-24.000 -8.000 24.000 137 0 0
-24.000 -8.000 32.000 130 0 0
-24.000 0.000 -40.000 84 0 0
-24.000 0.000 -32.000 85 0 0
-24.000 0.000 -24.000 85 0 0
-24.000 0.000 -16.000 84 0 0
-24.000 0.000 -8.000 77 0 0
-24.000 0.000 0.000 54 0 0
-24.000 0.000 8.000 78 0 0
-24.000 0.000 16.000 72 0 0
-24.000 0.000 24.000 98 0 0
-24.000 0.000 32.000 108 0 0
-24.000 8.000 -40.000 158 0 0
-24.000 8.000 -32.000 144 0 0
-24.000 8.000 -24.000 132 0 0
-24.000 8.000 -16.000 118 0 0
-24.000 8.000 -8.000 91 0 0
-24.000 8.000 0.000 71 0 0
-24.000 8.000 8.000 104 0 0
-24.000 8.000 16.000 86 0 0
-24.000 8.000 24.000 79 0 0
-24.000 8.000 32.000 84 0 0
-24.000 16.000 -40.000 95 0 0
-24.000 16.000 -32.000 86 0 0
-24.000 16.000 -24.000 81 0 0
-24.000 16.000 -16.000 72 0 0
-24.000 16.000 -8.000 52 0 0
-24.000 16.000 0.000 57 0 0
-24.000 16.000 8.000 96 0 0
-24.000 16.000 16.000 72 0 0
-24.000 16.000 24.000 69 0 0
-24.000 16.000 32.000 70 0 0
-24.000 24.000 -40.000 74 0 0
-24.000 24.000 -32.000 71 0 0
-24.000 24.000 -24.000 71 0 0
-24.000 24.000 -16.000 65 0 0
-24.000 24.000 -8.000 42 0 0
-24.000 24.000 0.000 43 0 0
-24.000 24.000 8.000 88 0 0
-24.000 24.000 16.000 71 0 0
-24.000 24.000 24.000 69 0 0
-24.000 24.000 32.000 70 0 0
-24.000 32.000 -40.000 70 0 0
-24.000 32.000 -32.000 67 0 0
-24.000 32.000 -24.000 62 0 0
-24.000 32.000 -16.000 56 0 0
-24.000 32.000 -8.000 36 0 0
-24.000 32.000 0.000 44 0 0
-24.000 32.000 8.000 89 0 0
-24.000 32.000 16.000 71 0 0
-24.000 32.000 24.000 68 0 0
-24.000 32.000 32.000 70 0 0
-16.000 -40.000 -40.000 212 0 0
-16.000 -40.000 -32.000 194 0 0
-16.000 -40.000 -24.000 179 0 0
-16.000 -40.000 -16.000 170 0 0
-16.000 -40.000 -8.000 170 0 0
-16.000 -40.000 0.000 132 0 0
-16.000 -40.000 8.000 133 0 0
-16.000 -40.000 16.000 126 0 0
-16.000 -40.000 24.000 127 0 0
-16.000 -40.000 32.000 126 0 0
-16.000 -32.000 -40.000 253 0 0
-16.000 -32.000 -32.000 205 0 0
-16.000 -32.000 -24.000 177 0 0
-16.000 -32.000 -16.000 170 0 0
-16.000 -32.000 -8.000 170 0 0
-16.000 -32.000 0.000 131 0 0
-16.000 -32.000 8.000 128 0 0
-16.000 -32.000 16.000 126 0 0
-16.000 -32.000 24.000 127 0 0
-16.000 -32.000 32.000 127 0 0
-16.000 -24.000 -40.000 245 0 0
-16.000 -24.000 -32.000 229 0 0
-16.000 -24.000 -24.000 203 0 0
-16.000 -24.000 -16.000 175 0 0
-16.000 -24.000 -8.000 171 0 0
-16.000 -24.000 0.000 133 0 0
-16.000 -24.000 8.000 127 0 0
-16.000 -24.000 16.000 127 0 0
-16.000 -24.000 24.000 127 0 0
-16.000 -24.000 32.000 126 0 0
-16.000 -16.000 -40.000 226 0 0
-16.000 -16.000 -32.000 221 0 0
-16.000 -16.000 -24.000 202 0 0
-16.000 -16.000 -16.000 204 0 0
-16.000 -16.000 -8.000 193 0 0
-16.000 -16.000 0.000 134 0 0
-16.000 -16.000 8.000 126 0 0
-16.000 -16.000 16.000 126 0 0
-16.000 -16.000 24.000 126 0 0
-16.000 -16.000 32.000 126 0 0
-16.000 -8.000 -40.000 242 0 0
-16.000 -8.000 -32.000 217 0 0
-16.000 -8.000 -24.000 193 0 0
-16.000 -8.000 -16.000 185 0 0
-16.000 -8.000 -8.000 179 0 0
-16.000 -8.000 0.000 166 0 0
-16.000 -8.000 8.000 143 0 0
-16.000 -8.000 16.000 130 0 0
-16.000 -8.000 24.000 127 0 0
-16.000 -8.000 32.000 137 0 0
-16.000 0.000 -40.000 93 0 0
-16.000 0.000 -32.000 88 0 0
-16.000 0.000 -24.000 84 0 0
-16.000 0.000 -16.000 85 0 0
-16.000 0.000 -8.000 82 0 0
-16.000 0.000 0.000 55 0 0
-16.000 0.000 8.000 72 0 0
-16.000 0.000 16.000 99 0 0
-16.000 0.000 24.000 108 0 0
-16.000 0.000 32.000 102 0 0
-16.000 8.000 -40.000 152 0 0
-16.000 8.000 -32.000 134 0 0
-16.000 8.000 -24.000 111 0 0
-16.000 8.000 -16.000 99 0 0
-16.000 8.000 -8.000 78 0 0
-16.000 8.000 0.000 63 0 0
-16.000 8.000 8.000 87 0 0
-16.000 8.000 16.000 72 0 0
-16.000 8.000 24.000 72 0 0
-16.000 8.000 32.000 86 0 0
-16.000 16.000 -40.000 86 0 0
-16.000 16.000 -32.000 77 0 0
-16.000 16.000 -24.000 72 0 0
-16.000 16.000 -16.000 72 0 0
-16.000 16.000 -8.000 59 0 0
-16.000 16.000 0.000 43 0 0
-16.000 16.000 8.000 75 0 0
-16.000 16.000 16.000 68 0 0
-16.000 16.000 24.000 71 0 0
-16.000 16.000 32.000 75 0 0
-16.000 24.000 -40.000 72 0 0
-16.000 24.000 -32.000 71 0 0
-16.000 24.000 -24.000 65 0 0
-16.000 24.000 -16.000 59 0 0
-16.000 24.000 -8.000 51 0 0
-16.000 24.000 0.000 44 0 0
-16.000 24.000 8.000 75 0 0
-16.000 24.000 16.000 68 0 0
-16.000 24.000 24.000 70 0 0
-16.000 24.000 32.000 75 0 0
-16.000 32.000 -40.000 66 0 0
-16.000 32.000 -32.000 60 0 0
-16.000 32.000 -24.000 56 0 0
-16.000 32.000 -16.000 57 0 0
-16.000 32.000 -8.000 48 0 0
-16.000 32.000 0.000 43 0 0
-16.000 32.000 8.000 77 0 0
-16.000 32.000 16.000 68 0 0
-16.000 32.000 24.000 71 0 0
-16.000 32.000 32.000 75 0 0
-8.000 -40.000 -40.000 225 0 0
-8.000 -40.000 -32.000 218 0 0
-8.000 -40.000 -24.000 206 0 0
-8.000 -40.000 -16.000 197 0 0
-8.000 -40.000 -8.000 188 0 0
-8.000 -40.000 0.000 135 0 0
-8.000 -40.000 8.000 129 0 0
-8.000 -40.000 16.000 126 0 0
-8.000 -40.000 24.000 127 0 0
-8.000 -40.000 32.000 126 0 0
-8.000 -32.000 -40.000 248 0 0
-8.000 -32.000 -32.000 220 0 0
-8.000 -32.000 -24.000 206 0 0
-8.000 -32.000 -16.000 196 0 0
-8.000 -32.000 -8.000 181 0 0
-8.000 -32.000 0.000 130 0 0
-8.000 -32.000 8.000 126 0 0
-8.000 -32.000 16.000 125 0 0
-8.000 -32.000 24.000 127 0 0
-8.000 -32.000 32.000 125 0 0
-8.000 -24.000 -40.000 274 0 0
-8.000 -24.000 -32.000 254 0 0
-8.000 -24.000 -24.000 212 0 0
-8.000 -24.000 -16.000 191 0 0
-8.000 -24.000 -8.000 173 0 0
-8.000 -24.000 0.000 133 0 0
-8.000 -24.000 8.000 126 0 0
-8.000 -24.000 16.000 126 0 0
-8.000 -24.000 24.000 126 0 0
-8.000 -24.000 32.000 127 0 0
-8.000 -16.000 -40.000 251 0 0
-8.000 -16.000 -32.000 258 0 0
-8.000 -16.000 -24.000 268 0 0
-8.000 -16.000 -16.000 212 0 0
-8.000 -16.000 -8.000 171 0 0
-8.000 -16.000 0.000 131 0 0
-8.000 -16.000 8.000 126 0 0
-8.000 -16.000 16.000 127 0 0
-8.000 -16.000 24.000 126 0 0
-8.000 -16.000 32.000 128 0 0
-8.000 -8.000 -40.000 232 0 0
-8.000 -8.000 -32.000 224 0 0
-8.000 -8.000 -24.000 217 0 0
-8.000 -8.000 -16.000 208 0 0
-8.000 -8.000 -8.000 198 0 0
-8.000 -8.000 0.000 131 0 0
-8.000 -8.000 8.000 126 0 0
-8.000 -8.000 16.000 126 0 0
-8.000 -8.000 24.000 139 0 0
-8.000 -8.000 32.000 157 0 0
-8.000 0.000 -40.000 102 0 0
-8.000 0.000 -32.000 100 0 0
-8.000 0.000 -24.000 95 0 0
-8.000 0.000 -16.000 88 0 0
-8.000 0.000 -8.000 85 0 0
-8.000 0.000 0.000 55 0 0
-8.000 0.000 8.000 91 0 0
-8.000 0.000 16.000 96 0 0
-8.000 0.000 24.000 96 0 0
-8.000 0.000 32.000 90 0 0
-8.000 8.000 -40.000 129 0 0
-8.000 8.000 -32.000 112 0 0
-8.000 8.000 -24.000 97 0 0
-8.000 8.000 -16.000 78 0 0
-8.000 8.000 -8.000 71 0 0
-8.000 8.000 0.000 44 0 0
-8.000 8.000 8.000 68 0 0
-8.000 8.000 16.000 75 0 0
-8.000 8.000 24.000 96 0 0
-8.000 8.000 32.000 115 0 0
-8.000 16.000 -40.000 73 0 0
-8.000 16.000 -32.000 72 0 0
-8.000 16.000 -24.000 73 0 0
-8.000 16.000 -16.000 63 0 0
-8.000 16.000 -8.000 57 0 0
-8.000 16.000 0.000 42 0 0
-8.000 16.000 8.000 68 0 0
-8.000 16.000 16.000 75 0 0
-8.000 16.000 24.000 86 0 0
-8.000 16.000 32.000 102 0 0
-8.000 24.000 -40.000 65 0 0
-8.000 24.000 -32.000 64 0 0
-8.000 24.000 -24.000 54 0 0
-8.000 24.000 -16.000 55 0 0
-8.000 24.000 -8.000 56 0 0
-8.000 24.000 0.000 43 0 0
-8.000 24.000 8.000 68 0 0
-8.000 24.000 16.000 74 0 0
-8.000 24.000 24.000 86 0 0
-8.000 24.000 32.000 97 0 0
-8.000 32.000 -40.000 55 0 0
-8.000 32.000 -32.000 52 0 0
-8.000 32.000 -24.000 55 0 0
-8.000 32.000 -16.000 58 0 0
-8.000 32.000 -8.000 54 0 0
-8.000 32.000 0.000 41 0 0
-8.000 32.000 8.000 69 0 0
-8.000 32.000 16.000 74 0 0
-8.000 32.000 24.000 86 0 0
-8.000 32.000 32.000 98 0 0
0.000 -40.000 -40.000 109 0 0
0.000 -40.000 -32.000 111 0 0
0.000 -40.000 -24.000 114 0 0
0.000 -40.000 -16.000 120 0 0
0.000 -40.000 -8.000 121 0 0
0.000 -40.000 0.000 83 0 0
0.000 -40.000 8.000 85 0 0
0.000 -40.000 16.000 77 0 0
0.000 -40.000 24.000 73 0 0
0.000 -40.000 32.000 71 0 0
0.000 -32.000 -40.000 109 0 0
0.000 -32.000 -32.000 108 0 0
0.000 -32.000 -24.000 109 0 0
0.000 -32.000 -16.000 116 0 0
0.000 -32.000 -8.000 123 0 0
0.000 -32.000 0.000 86 0 0
0.000 -32.000 8.000 78 0 0
0.000 -32.000 16.000 74 0 0
0.000 -32.000 24.000 72 0 0
0.000 -32.000 32.000 70 0 0
0.000 -24.000 -40.000 116 0 0
0.000 -24.000 -32.000 110 0 0
0.000 -24.000 -24.000 109 0 0
0.000 -24.000 -16.000 111 0 0
0.000 -24.000 -8.000 120 0 0
0.000 -24.000 0.000 89 0 0
0.000 -24.000 8.000 76 0 0
0.000 -24.000 16.000 73 0 0
0.000 -24.000 24.000 70 0 0
0.000 -24.000 32.000 70 0 0
0.000 -16.000 -40.000 131 0 0
0.000 -16.000 -32.000 122 0 0
0.000 -16.000 -24.000 113 0 0
0.000 -16.000 -16.000 109 0 0
0.000 -16.000 -8.000 116 0 0
0.000 -16.000 0.000 90 0 0
0.000 -16.000 8.000 76 0 0
0.000 -16.000 16.000 70 0 0
0.000 -16.000 24.000 72 0 0
0.000 -16.000 32.000 79 0 0
0.000 -8.000 -40.000 146 0 0
0.000 -8.000 -32.000 137 0 0
0.000 -8.000 -24.000 136 0 0
0.000 -8.000 -16.000 125 0 0
0.000 -8.000 -8.000 109 0 0
0.000 -8.000 0.000 86 0 0
0.000 -8.000 8.000 71 0 0
0.000 -8.000 16.000 79 0 0
0.000 -8.000 24.000 89 0 0
0.000 -8.000 32.000 96 0 0
0.000 0.000 -40.000 47 0 0
0.000 0.000 -32.000 47 0 0
0.000 0.000 -24.000 47 0 0
0.000 0.000 -16.000 47 0 0
0.000 0.000 -8.000 47 0 0
0.000 0.000 0.000 0 0 0
0.000 0.000 8.000 8 0 0
0.000 0.000 16.000 9 0 0
0.000 0.000 24.000 9 0 0
0.000 0.000 32.000 9 0 0
0.000 8.000 -40.000 72 0 0
0.000 8.000 -32.000 63 0 0
0.000 8.000 -24.000 54 0 0
0.000 8.000 -16.000 50 0 0
0.000 8.000 -8.000 42 0 0
0.000 8.000 0.000 0 0 0
0.000 8.000 8.000 4 0 0
0.000 8.000 16.000 6 0 0
0.000 8.000 24.000 11 0 0
0.000 8.000 32.000 21 0 0
0.000 16.000 -40.000 54 0 0
0.000 16.000 -32.000 50 0 0
0.000 16.000 -24.000 45 0 0
0.000 16.000 -16.000 42 0 0
0.000 16.000 -8.000 45 0 0
0.000 16.000 0.000 0 0 0
0.000 16.000 8.000 3 0 0
0.000 16.000 16.000 4 0 0
0.000 16.000 24.000 4 0 0
0.000 16.000 32.000 7 0 0
0.000 24.000 -40.000 47 0 0
0.000 24.000 -32.000 44 0 0
0.000 24.000 -24.000 42 0 0
0.000 24.000 -16.000 43 0 0
0.000 24.000 -8.000 46 0 0
0.000 24.000 0.000 0 0 0
0.000 24.000 8.000 4 0 0
0.000 24.000 16.000 4 0 0
0.000 24.000 24.000 4 0 0
0.000 24.000 32.000 4 0 0
0.000 32.000 -40.000 42 0 0
0.000 32.000 -32.000 43 0 0
0.000 32.000 -24.000 43 0 0
0.000 32.000 -16.000 44 0 0
0.000 32.000 -8.000 45 0 0
0.000 32.000 0.000 0 0 0
0.000 32.000 8.000 4 0 0
0.000 32.000 16.000 3 0 0
0.000 32.000 24.000 4 0 0
0.000 32.000 32.000 4 0 0
8.000 -40.000 -40.000 154 0 0
8.000 -40.000 -32.000 140 0 0
8.000 -40.000 -24.000 125 0 0
8.000 -40.000 -16.000 110 0 0
8.000 -40.000 -8.000 100 0 0
8.000 -40.000 0.000 87 0 0
8.000 -40.000 8.000 125 0 0
8.000 -40.000 16.000 134 0 0
8.000 -40.000 24.000 148 0 0
8.000 -40.000 32.000 143 0 0
8.000 -32.000 -40.000 155 0 0
8.000 -32.000 -32.000 140 0 0
8.000 -32.000 -24.000 126 0 0
8.000 -32.000 -16.000 111 0 0
8.000 -32.000 -8.000 99 0 0
8.000 -32.000 0.000 89 0 0
8.000 -32.000 8.000 118 0 0
8.000 -32.000 16.000 133 0 0
8.000 -32.000 24.000 145 0 0
8.000 -32.000 32.000 147 0 0
8.000 -24.000 -40.000 156 0 0
8.000 -24.000 -32.000 140 0 0
8.000 -24.000 -24.000 126 0 0
8.000 -24.000 -16.000 110 0 0
8.000 -24.000 -8.000 99 0 0
8.000 -24.000 0.000 89 0 0
8.000 -24.000 8.000 114 0 0
8.000 -24.000 16.000 135 0 0
8.000 -24.000 24.000 148 0 0
8.000 -24.000 32.000 183 0 0
8.000 -16.000 -40.000 175 0 0
8.000 -16.000 -32.000 148 0 0
8.000 -16.000 -24.000 125 0 0
8.000 -16.000 -16.000 111 0 0
8.000 -16.000 -8.000 100 0 0
8.000 -16.000 0.000 85 0 0
8.000 -16.000 8.000 110 0 0
8.000 -16.000 16.000 142 0 0
8.000 -16.000 24.000 184 0 0
8.000 -16.000 32.000 192 0 0
8.000 -8.000 -40.000 182 0 0
8.000 -8.000 -32.000 167 0 0
8.000 -8.000 -24.000 142 0 0
8.000 -8.000 -16.000 111 0 0
8.000 -8.000 -8.000 100 0 0
8.000 -8.000 0.000 87 0 0
8.000 -8.000 8.000 127 0 0
8.000 -8.000 16.000 157 0 0
8.000 -8.000 24.000 153 0 0
8.000 -8.000 32.000 164 0 0
8.000 0.000 -40.000 69 0 0
8.000 0.000 -32.000 64 0 0
8.000 0.000 -24.000 59 0 0
8.000 0.000 -16.000 59 0 0
8.000 0.000 -8.000 57 0 0
8.000 0.000 0.000 10 0 0
8.000 0.000 8.000 26 0 0
8.000 0.000 16.000 31 0 0
8.000 0.000 24.000 37 0 0
8.000 0.000 32.000 37 0 0
8.000 8.000 -40.000 67 0 0
8.000 8.000 -32.000 58 0 0
8.000 8.000 -24.000 52 0 0
8.000 8.000 -16.000 43 0 0
8.000 8.000 -8.000 42 0 0
8.000 8.000 0.000 0 0 0
8.000 8.000 8.000 3 0 0
8.000 8.000 16.000 13 0 0
8.000 8.000 24.000 36 0 0
8.000 8.000 32.000 48 0 0
8.000 16.000 -40.000 52 0 0
8.000 16.000 -32.000 45 0 0
8.000 16.000 -24.000 42 0 0
8.000 16.000 -16.000 42 0 0
8.000 16.000 -8.000 42 0 0
8.000 16.000 0.000 0 0 0
8.000 16.000 8.000 0 0 0
8.000 16.000 16.000 2 0 0
8.000 16.000 24.000 7 0 0
8.000 16.000 32.000 14 0 0
8.000 24.000 -40.000 43 0 0
8.000 24.000 -32.000 42 0 0
8.000 24.000 -24.000 42 0 0
8.000 24.000 -16.000 42 0 0
8.000 24.000 -8.000 42 0 0
8.000 24.000 0.000 0 0 0
8.000 24.000 8.000 1 0 0
8.000 24.000 16.000 3 0 0
8.000 24.000 24.000 9 0 0
8.000 24.000 32.000 11 0 0
8.000 32.000 -40.000 44 0 0
8.000 32.000 -32.000 43 0 0
8.000 32.000 -24.000 43 0 0
8.000 32.000 -16.000 43 0 0
8.000 32.000 -8.000 41 0 0
8.000 32.000 0.000 1 0 0
8.000 32.000 8.000 3 0 0
8.000 32.000 16.000 4 0 0
8.000 32.000 24.000 8 0 0
8.000 32.000 32.000 14 0 0
16.000 -40.000 -40.000 118 0 0
16.000 -40.000 -32.000 110 0 0
16.000 -40.000 -24.000 101 0 0
16.000 -40.000 -16.000 100 0 0
16.000 -40.000 -8.000 92 0 0
16.000 -40.000 0.000 87 0 0
16.000 -40.000 8.000 121 0 0
16.000 -40.000 16.000 114 0 0
16.000 -40.000 24.000 122 0 0
16.000 -40.000 32.000 130 0 0
16.000 -32.000 -40.000 118 0 0
16.000 -32.000 -32.000 110 0 0
16.000 -32.000 -24.000 100 0 0
16.000 -32.000 -16.000 100 0 0
16.000 -32.000 -8.000 93 0 0
16.000 -32.000 0.000 87 0 0
16.000 -32.000 8.000 118 0 0
16.000 -32.000 16.000 111 0 0
16.000 -32.000 24.000 119 0 0
16.000 -32.000 32.000 148 0 0
16.000 -24.000 -40.000 118 0 0
16.000 -24.000 -32.000 109 0 0
16.000 -24.000 -24.000 101 0 0
16.000 -24.000 -16.000 100 0 0
16.000 -24.000 -8.000 93 0 0
16.000 -24.000 0.000 87 0 0
16.000 -24.000 8.000 118 0 0
16.000 -24.000 16.000 113 0 0
16.000 -24.000 24.000 131 0 0
16.000 -24.000 32.000 160 0 0
16.000 -16.000 -40.000 125 0 0
16.000 -16.000 -32.000 110 0 0
16.000 -16.000 -24.000 100 0 0
16.000 -16.000 -16.000 99 0 0
16.000 -16.000 -8.000 93 0 0
16.000 -16.000 0.000 87 0 0
16.000 -16.000 8.000 128 0 0
16.000 -16.000 16.000 131 0 0
16.000 -16.000 24.000 133 0 0
16.000 -16.000 32.000 160 0 0
16.000 -8.000 -40.000 138 0 0
16.000 -8.000 -32.000 121 0 0
16.000 -8.000 -24.000 101 0 0
16.000 -8.000 -16.000 102 0 0
16.000 -8.000 -8.000 103 0 0
16.000 -8.000 0.000 111 0 0
16.000 -8.000 8.000 127 0 0
16.000 -8.000 16.000 123 0 0
16.000 -8.000 24.000 135 0 0
16.000 -8.000 32.000 163 0 0
16.000 0.000 -40.000 59 0 0
16.000 0.000 -32.000 61 0 0
16.000 0.000 -24.000 64 0 0
16.000 0.000 -16.000 59 0 0
16.000 0.000 -8.000 39 0 0
16.000 0.000 0.000 10 0 0
16.000 0.000 8.000 30 0 0
16.000 0.000 16.000 27 0 0
16.000 0.000 24.000 28 0 0
16.000 0.000 32.000 32 0 0
16.000 8.000 -40.000 56 0 0
16.000 8.000 -32.000 50 0 0
16.000 8.000 -24.000 44 0 0
16.000 8.000 -16.000 43 0 0
16.000 8.000 -8.000 48 0 0
16.000 8.000 0.000 4 0 0
16.000 8.000 8.000 24 0 0
16.000 8.000 16.000 39 0 0
16.000 8.000 24.000 54 0 0
16.000 8.000 32.000 73 0 0
16.000 16.000 -40.000 46 0 0
16.000 16.000 -32.000 42 0 0
16.000 16.000 -24.000 42 0 0
16.000 16.000 -16.000 42 0 0
16.000 16.000 -8.000 42 0 0
16.000 16.000 0.000 0 0 0
16.000 16.000 8.000 1 0 0
16.000 16.000 16.000 4 0 0
16.000 16.000 24.000 7 0 0
16.000 16.000 32.000 13 0 0
16.000 24.000 -40.000 43 0 0
16.000 24.000 -32.000 42 0 0
16.000 24.000 -24.000 43 0 0
16.000 24.000 -16.000 42 0 0
16.000 24.000 -8.000 42 0 0
16.000 24.000 0.000 0 0 0
16.000 24.000 8.000 0 0 0
16.000 24.000 16.000 0 0 0
16.000 24.000 24.000 2 0 0
16.000 24.000 32.000 2 0 0
16.000 32.000 -40.000 42 0 0
16.000 32.000 -32.000 42 0 0
16.000 32.000 -24.000 42 0 0
16.000 32.000 -16.000 42 0 0
16.000 32.000 -8.000 39 0 0
16.000 32.000 0.000 0 0 0
16.000 32.000 8.000 1 0 0
16.000 32.000 16.000 0 0 0
16.000 32.000 24.000 1 0 0
16.000 32.000 32.000 2 0 0
24.000 -40.000 -40.000 104 0 0
24.000 -40.000 -32.000 99 0 0
24.000 -40.000 -24.000 100 0 0
24.000 -40.000 -16.000 99 0 0
24.000 -40.000 -8.000 78 0 0
24.000 -40.000 0.000 90 0 0
24.000 -40.000 8.000 136 0 0
24.000 -40.000 16.000 113 0 0
24.000 -40.000 24.000 111 0 0
24.000 -40.000 32.000 123 0 0
24.000 -32.000 -40.000 103 0 0
24.000 -32.000 -32.000 99 0 0
24.000 -32.000 -24.000 101 0 0
24.000 -32.000 -16.000 98 0 0
24.000 -32.000 -8.000 79 0 0
24.000 -32.000 0.000 87 0 0
24.000 -32.000 8.000 134 0 0
24.000 -32.000 16.000 115 0 0
24.000 -32.000 24.000 119 0 0
24.000 -32.000 32.000 127 0 0
24.000 -24.000 -40.000 103 0 0
24.000 -24.000 -32.000 99 0 0
24.000 -24.000 -24.000 100 0 0
24.000 -24.000 -16.000 98 0 0
24.000 -24.000 -8.000 80 0 0
24.000 -24.000 0.000 88 0 0
24.000 -24.000 8.000 147 0 0
24.000 -24.000 16.000 132 0 0
24.000 -24.000 24.000 129 0 0
24.000 -24.000 32.000 135 0 0
24.000 -16.000 -40.000 104 0 0
24.000 -16.000 -32.000 99 0 0
24.000 -16.000 -24.000 100 0 0
24.000 -16.000 -16.000 98 0 0
24.000 -16.000 -8.000 85 0 0
24.000 -16.000 0.000 108 0 0
24.000 -16.000 8.000 148 0 0
24.000 -16.000 16.000 129 0 0
24.000 -16.000 24.000 121 0 0
24.000 -16.000 32.000 122 0 0
24.000 -8.000 -40.000 107 0 0
24.000 -8.000 -32.000 97 0 0
24.000 -8.000 -24.000 108 0 0
24.000 -8.000 -16.000 117 0 0
24.000 -8.000 -8.000 110 0 0
24.000 -8.000 0.000 117 0 0
24.000 -8.000 8.000 141 0 0
24.000 -8.000 16.000 139 0 0
24.000 -8.000 24.000 148 0 0
24.000 -8.000 32.000 158 0 0
24.000 0.000 -40.000 63 0 0
24.000 0.000 -32.000 60 0 0
24.000 0.000 -24.000 56 0 0
24.000 0.000 -16.000 47 0 0
24.000 0.000 -8.000 34 0 0
24.000 0.000 0.000 10 0 0
24.000 0.000 8.000 35 0 0
24.000 0.000 16.000 28 0 0
24.000 0.000 24.000 27 0 0
24.000 0.000 32.000 27 0 0
24.000 8.000 -40.000 55 0 0
24.000 8.000 -32.000 54 0 0
24.000 8.000 -24.000 50 0 0
24.000 8.000 -16.000 51 0 0
24.000 8.000 -8.000 52 0 0
24.000 8.000 0.000 23 0 0
24.000 8.000 8.000 49 0 0
24.000 8.000 16.000 59 0 0
24.000 8.000 24.000 72 0 0
24.000 8.000 32.000 86 0 0
24.000 16.000 -40.000 43 0 0
24.000 16.000 -32.000 43 0 0
24.000 16.000 -24.000 42 0 0
24.000 16.000 -16.000 43 0 0
24.000 16.000 -8.000 44 0 0
24.000 16.000 0.000 1 0 0
24.000 16.000 8.000 6 0 0
24.000 16.000 16.000 11 0 0
24.000 16.000 24.000 17 0 0
24.000 16.000 32.000 28 0 0
24.000 24.000 -40.000 42 0 0
24.000 24.000 -32.000 42 0 0
24.000 24.000 -24.000 42 0 0
24.000 24.000 -16.000 42 0 0
24.000 24.000 -8.000 41 0 0
24.000 24.000 0.000 0 0 0
24.000 24.000 8.000 0 0 0
24.000 24.000 16.000 2 0 0
24.000 24.000 24.000 4 0 0
24.000 24.000 32.000 6 0 0
24.000 32.000 -40.000 42 0 0
24.000 32.000 -32.000 42 0 0
24.000 32.000 -24.000 42 0 0
24.000 32.000 -16.000 42 0 0
24.000 32.000 -8.000 38 0 0
24.000 32.000 0.000 0 0 0
24.000 32.000 8.000 0 0 0
24.000 32.000 16.000 0 0 0
24.000 32.000 24.000 1 0 0
24.000 32.000 32.000 4 0 0
32.000 -40.000 -40.000 100 0 0
32.000 -40.000 -32.000 101 0 0
32.000 -40.000 -24.000 99 0 0
32.000 -40.000 -16.000 93 0 0
32.000 -40.000 -8.000 81 0 0
32.000 -40.000 0.000 88 0 0
32.000 -40.000 8.000 150 0 0
32.000 -40.000 16.000 119 0 0
32.000 -40.000 24.000 117 0 0
32.000 -40.000 32.000 124 0 0
32.000 -32.000 -40.000 99 0 0
32.000 -32.000 -32.000 100 0 0
32.000 -32.000 -24.000 98 0 0
32.000 -32.000 -16.000 94 0 0
32.000 -32.000 -8.000 85 0 0
32.000 -32.000 0.000 89 0 0
32.000 -32.000 8.000 167 0 0
32.000 -32.000 16.000 134 0 0
32.000 -32.000 24.000 128 0 0
32.000 -32.000 32.000 129 0 0
32.000 -24.000 -40.000 99 0 0
32.000 -24.000 -32.000 101 0 0
32.000 -24.000 -24.000 100 0 0
32.000 -24.000 -16.000 93 0 0
32.000 -24.000 -8.000 84 0 0
32.000 -24.000 0.000 104 0 0
32.000 -24.000 8.000 174 0 0
32.000 -24.000 16.000 139 0 0
32.000 -24.000 24.000 130 0 0
32.000 -24.000 32.000 126 0 0
32.000 -16.000 -40.000 99 0 0
32.000 -16.000 -32.000 101 0 0
32.000 -16.000 -24.000 104 0 0
32.000 -16.000 -16.000 103 0 0
32.000 -16.000 -8.000 92 0 0
32.000 -16.000 0.000 116 0 0
32.000 -16.000 8.000 154 0 0
32.000 -16.000 16.000 128 0 0
32.000 -16.000 24.000 121 0 0
32.000 -16.000 32.000 125 0 0
32.000 -8.000 -40.000 104 0 0
32.000 -8.000 -32.000 112 0 0
32.000 -8.000 -24.000 122 0 0
32.000 -8.000 -16.000 126 0 0
32.000 -8.000 -8.000 107 0 0
32.000 -8.000 0.000 126 0 0
32.000 -8.000 8.000 164 0 0
32.000 -8.000 16.000 156 0 0
32.000 -8.000 24.000 163 0 0
32.000 -8.000 32.000 173 0 0
32.000 0.000 -40.000 64 0 0
32.000 0.000 -32.000 59 0 0
32.000 0.000 -24.000 49 0 0
32.000 0.000 -16.000 39 0 0
32.000 0.000 -8.000 27 0 0
32.000 0.000 0.000 10 0 0
32.000 0.000 8.000 42 0 0
32.000 0.000 16.000 30 0 0
32.000 0.000 24.000 27 0 0
32.000 0.000 32.000 27 0 0
32.000 8.000 -40.000 57 0 0
32.000 8.000 -32.000 52 0 0
32.000 8.000 -24.000 55 0 0
32.000 8.000 -16.000 57 0 0
32.000 8.000 -8.000 59 0 0
32.000 8.000 0.000 47 0 0
32.000 8.000 8.000 74 0 0
32.000 8.000 16.000 80 0 0
32.000 8.000 24.000 91 0 0
32.000 8.000 32.000 103 0 0
32.000 16.000 -40.000 43 0 0
32.000 16.000 -32.000 45 0 0
32.000 16.000 -24.000 46 0 0
32.000 16.000 -16.000 50 0 0
32.000 16.000 -8.000 48 0 0
32.000 16.000 0.000 4 0 0
32.000 16.000 8.000 16 0 0
32.000 16.000 16.000 21 0 0
32.000 16.000 24.000 31 0 0
32.000 16.000 32.000 40 0 0
32.000 24.000 -40.000 42 0 0
32.000 24.000 -32.000 42 0 0
32.000 24.000 -24.000 42 0 0
32.000 24.000 -16.000 42 0 0
32.000 24.000 -8.000 41 0 0
32.000 24.000 0.000 0 0 0
32.000 24.000 8.000 4 0 0
32.000 24.000 16.000 5 0 0
32.000 24.000 24.000 6 0 0
32.000 24.000 32.000 12 0 0
32.000 32.000 -40.000 42 0 0
32.000 32.000 -32.000 42 0 0
32.000 32.000 -24.000 42 0 0
32.000 32.000 -16.000 42 0 0
32.000 32.000 -8.000 38 0 0
32.000 32.000 0.000 0 0 0
32.000 32.000 8.000 1 0 0
32.000 32.000 16.000 2 0 0
32.000 32.000 24.000 4 0 0
32.000 32.000 32.000 4 0 0
40.000 0.000 0.000 255 0 0
0.000 40.000 0.000 0 255 0
0.000 0.000 40.000 0 0 255
