ply
format ascii 1.0
element vertex 1000
property float x
property float y
property float z
property uchar red
property uchar green
property uchar blue
end_header
-40.000 -40.000 -40.000 1 0 0
-40.000 -40.000 -32.000 2 0 0
-40.000 -40.000 -24.000 2 0 0
-40.000 -40.000 -16.000 2 0 0
-40.000 -40.000 -8.000 4 0 0
-40.000 -40.000 0.000 0 0 0
-40.000 -40.000 8.000 2 0 0
-40.000 -40.000 16.000 0 0 0
-40.000 -40.000 24.000 0 0 0
-40.000 -40.000 32.000 0 0 0
-40.000 -32.000 -40.000 1 0 0
-40.000 -32.000 -32.000 2 0 0
-40.000 -32.000 -24.000 3 0 0
-40.000 -32.000 -16.000 3 0 0
-40.000 -32.000 -8.000 2 0 0
-40.000 -32.000 0.000 1 0 0
-40.000 -32.000 8.000 2 0 0
-40.000 -32.000 16.000 0 0 0
-40.000 -32.000 24.000 0 0 0
-40.000 -32.000 32.000 0 0 0
-40.000 -24.000 -40.000 0 0 0
-40.000 -24.000 -32.000 0 0 0
-40.000 -24.000 -24.000 1 0 0
-40.000 -24.000 -16.000 1 0 0
-40.000 -24.000 -8.000 2 0 0
-40.000 -24.000 0.000 0 0 0
-40.000 -24.000 8.000 6 0 0
-40.000 -24.000 16.000 0 0 0
-40.000 -24.000 24.000 0 0 0
-40.000 -24.000 32.000 0 0 0
-40.000 -16.000 -40.000 0 0 0
-40.000 -16.000 -32.000 0 0 0
-40.000 -16.000 -24.000 0 0 0
-40.000 -16.000 -16.000 0 0 0
-40.000 -16.000 -8.000 1 0 0
-40.000 -16.000 0.000 0 0 0
-40.000 -16.000 8.000 4 0 0
-40.000 -16.000 16.000 2 0 0
-40.000 -16.000 24.000 3 0 0
-40.000 -16.000 32.000 3 0 0
-40.000 -8.000 -40.000 1 0 0
-40.000 -8.000 -32.000 1 0 0
-40.000 -8.000 -24.000 1 0 0
-40.000 -8.000 -16.000 0 0 0
-40.000 -8.000 -8.000 0 0 0
-40.000 -8.000 0.000 1 0 0
-40.000 -8.000 8.000 1 0 0
-40.000 -8.000 16.000 1 0 0
-40.000 -8.000 24.000 4 0 0
-40.000 -8.000 32.000 8 0 0
-40.000 0.000 -40.000 0 0 0
-40.000 0.000 -32.000 0 0 0
-40.000 0.000 -24.000 0 0 0
-40.000 0.000 -16.000 0 0 0
-40.000 0.000 -8.000 0 0 0
-40.000 0.000 0.000 0 0 0
-40.000 0.000 8.000 0 0 0
-40.000 0.000 16.000 0 0 0
-40.000 0.000 24.000 0 0 0
-40.000 0.000 32.000 0 0 0
-40.000 8.000 -40.000 0 0 0
-40.000 8.000 -32.000 1 0 0
-40.000 8.000 -24.000 1 0 0
-40.000 8.000 -16.000 0 0 0
-40.000 8.000 -8.000 1 0 0
-40.000 8.000 0.000 1 0 0
-40.000 8.000 8.000 1 0 0
-40.000 8.000 16.000 0 0 0
-40.000 8.000 24.000 5 0 0
-40.000 8.000 32.000 8 0 0
-40.000 16.000 -40.000 0 0 0
-40.000 16.000 -32.000 0 0 0
-40.000 16.000 -24.000 1 0 0
-40.000 16.000 -16.000 0 0 0
-40.000 16.000 -8.000 0 0 0
-40.000 16.000 0.000 0 0 0
-40.000 16.000 8.000 4 0 0
-40.000 16.000 16.000 1 0 0
-40.000 16.000 24.000 4 0 0
-40.000 16.000 32.000 2 0 0
-40.000 24.000 -40.000 0 0 0
-40.000 24.000 -32.000 0 0 0
-40.000 24.000 -24.000 1 0 0
-40.000 24.000 -16.000 1 0 0
-40.000 24.000 -8.000 5 0 0
-40.000 24.000 0.000 1 0 0
-40.000 24.000 8.000 3 0 0
-40.000 24.000 16.000 1 0 0
-40.000 24.000 24.000 1 0 0
-40.000 24.000 32.000 0 0 0
-40.000 32.000 -40.000 1 0 0
-40.000 32.000 -32.000 1 0 0
-40.000 32.000 -24.000 2 0 0
-40.000 32.000 -16.000 3 0 0
-40.000 32.000 -8.000 2 0 0
-40.000 32.000 0.000 1 0 0
-40.000 32.000 8.000 2 0 0
-40.000 32.000 16.000 1 0 0
-40.000 32.000 24.000 0 0 0
-40.000 32.000 32.000 0 0 0
-32.000 -40.000 -40.000 3 0 0
-32.000 -40.000 -32.000 2 0 0
-32.000 -40.000 -24.000 0 0 0
-32.000 -40.000 -16.000 0 0 0
-32.000 -40.000 -8.000 1 0 0
-32.000 -40.000 0.000 0 0 0
-32.000 -40.000 8.000 2 0 0
-32.000 -40.000 16.000 0 0 0
-32.000 -40.000 24.000 0 0 0
-32.000 -40.000 32.000 0 0 0
-32.000 -32.000 -40.000 3 0 0
-32.000 -32.000 -32.000 1 0 0
-32.000 -32.000 -24.000 3 0 0
-32.000 -32.000 -16.000 2 0 0
-32.000 -32.000 -8.000 0 0 0
-32.000 -32.000 0.000 1 0 0
-32.000 -32.000 8.000 2 0 0
-32.000 -32.000 16.000 0 0 0
-32.000 -32.000 24.000 0 0 0
-32.000 -32.000 32.000 0 0 0
-32.000 -24.000 -40.000 0 0 0
-32.000 -24.000 -32.000 0 0 0
-32.000 -24.000 -24.000 2 0 0
-32.000 -24.000 -16.000 3 0 0
-32.000 -24.000 -8.000 5 0 0
-32.000 -24.000 0.000 0 0 0
-32.000 -24.000 8.000 1 0 0
-32.000 -24.000 16.000 0 0 0
-32.000 -24.000 24.000 0 0 0
-32.000 -24.000 32.000 0 0 0
-32.000 -16.000 -40.000 1 0 0
-32.000 -16.000 -32.000 0 0 0
-32.000 -16.000 -24.000 0 0 0
-32.000 -16.000 -16.000 1 0 0
-32.000 -16.000 -8.000 1 0 0
-32.000 -16.000 0.000 2 0 0
-32.000 -16.000 8.000 3 0 0
-32.000 -16.000 16.000 1 0 0
-32.000 -16.000 24.000 1 0 0
-32.000 -16.000 32.000 0 0 0
-32.000 -8.000 -40.000 1 0 0
-32.000 -8.000 -32.000 0 0 0
-32.000 -8.000 -24.000 0 0 0
-32.000 -8.000 -16.000 1 0 0
-32.000 -8.000 -8.000 0 0 0
-32.000 -8.000 0.000 0 0 0
-32.000 -8.000 8.000 2 0 0
-32.000 -8.000 16.000 3 0 0
-32.000 -8.000 24.000 3 0 0
-32.000 -8.000 32.000 4 0 0
-32.000 0.000 -40.000 0 0 0
-32.000 0.000 -32.000 0 0 0
-32.000 0.000 -24.000 0 0 0
-32.000 0.000 -16.000 0 0 0
-32.000 0.000 -8.000 0 0 0
-32.000 0.000 0.000 0 0 0
-32.000 0.000 8.000 0 0 0
-32.000 0.000 16.000 0 0 0
-32.000 0.000 24.000 0 0 0
-32.000 0.000 32.000 1 0 0
-32.000 8.000 -40.000 1 0 0
-32.000 8.000 -32.000 1 0 0
-32.000 8.000 -24.000 0 0 0
-32.000 8.000 -16.000 0 0 0
-32.000 8.000 -8.000 2 0 0
-32.000 8.000 0.000 0 0 0
-32.000 8.000 8.000 0 0 0
-32.000 8.000 16.000 4 0 0
-32.000 8.000 24.000 1 0 0
-32.000 8.000 32.000 6 0 0
-32.000 16.000 -40.000 0 0 0
-32.000 16.000 -32.000 0 0 0
-32.000 16.000 -24.000 0 0 0
-32.000 16.000 -16.000 0 0 0
-32.000 16.000 -8.000 2 0 0
-32.000 16.000 0.000 2 0 0
-32.000 16.000 8.000 4 0 0
-32.000 16.000 16.000 3 0 0
-32.000 16.000 24.000 1 0 0
-32.000 16.000 32.000 0 0 0
-32.000 24.000 -40.000 1 0 0
-32.000 24.000 -32.000 1 0 0
-32.000 24.000 -24.000 1 0 0
-32.000 24.000 -16.000 3 0 0
-32.000 24.000 -8.000 4 0 0
-32.000 24.000 0.000 1 0 0
-32.000 24.000 8.000 1 0 0
-32.000 24.000 16.000 0 0 0
-32.000 24.000 24.000 0 0 0
-32.000 24.000 32.000 0 0 0
-32.000 32.000 -40.000 2 0 0
-32.000 32.000 -32.000 0 0 0
-32.000 32.000 -24.000 2 0 0
-32.000 32.000 -16.000 2 0 0
-32.000 32.000 -8.000 1 0 0
-32.000 32.000 0.000 0 0 0
-32.000 32.000 8.000 1 0 0
-32.000 32.000 16.000 0 0 0
-32.000 32.000 24.000 0 0 0
-32.000 32.000 32.000 0 0 0
-24.000 -40.000 -40.000 1 0 0
-24.000 -40.000 -32.000 0 0 0
-24.000 -40.000 -24.000 0 0 0
-24.000 -40.000 -16.000 1 0 0
-24.000 -40.000 -8.000 2 0 0
-24.000 -40.000 0.000 0 0 0
-24.000 -40.000 8.000 0 0 0
-24.000 -40.000 16.000 0 0 0
-24.000 -40.000 24.000 0 0 0
-24.000 -40.000 32.000 0 0 0
-24.000 -32.000 -40.000 2 0 0
-24.000 -32.000 -32.000 2 0 0
-24.000 -32.000 -24.000 1 0 0
-24.000 -32.000 -16.000 0 0 0
-24.000 -32.000 -8.000 0 0 0
-24.000 -32.000 0.000 0 0 0
-24.000 -32.000 8.000 0 0 0
-24.000 -32.000 16.000 0 0 0
-24.000 -32.000 24.000 0 0 0
-24.000 -32.000 32.000 0 0 0
-24.000 -24.000 -40.000 2 0 0
-24.000 -24.000 -32.000 2 0 0
-24.000 -24.000 -24.000 0 0 0
-24.000 -24.000 -16.000 3 0 0
-24.000 -24.000 -8.000 2 0 0
-24.000 -24.000 0.000 0 0 0
-24.000 -24.000 8.000 0 0 0
-24.000 -24.000 16.000 0 0 0
-24.000 -24.000 24.000 0 0 0
-24.000 -24.000 32.000 0 0 0
-24.000 -16.000 -40.000 1 0 0
-24.000 -16.000 -32.000 1 0 0
-24.000 -16.000 -24.000 0 0 0
-24.000 -16.000 -16.000 1 0 0
-24.000 -16.000 -8.000 3 0 0
-24.000 -16.000 0.000 2 0 0
-24.000 -16.000 8.000 2 0 0
-24.000 -16.000 16.000 0 0 0
-24.000 -16.000 24.000 0 0 0
-24.000 -16.000 32.000 0 0 0
-24.000 -8.000 -40.000 0 0 0
-24.000 -8.000 -32.000 0 0 0
-24.000 -8.000 -24.000 0 0 0
-24.000 -8.000 -16.000 1 0 0
-24.000 -8.000 -8.000 1 0 0
-24.000 -8.000 0.000 0 0 0
-24.000 -8.000 8.000 3 0 0
-24.000 -8.000 16.000 2 0 0
-24.000 -8.000 24.000 3 0 0
-24.000 -8.000 32.000 2 0 0
-24.000 0.000 -40.000 0 0 0
-24.000 0.000 -32.000 0 0 0
-24.000 0.000 -24.000 0 0 0
-24.000 0.000 -16.000 0 0 0
-24.000 0.000 -8.000 0 0 0
-24.000 0.000 0.000 0 0 0
-24.000 0.000 8.000 0 0 0
-24.000 0.000 16.000 0 0 0
-24.000 0.000 24.000 2 0 0
-24.000 0.000 32.000 0 0 0
-24.000 8.000 -40.000 1 0 0
-24.000 8.000 -32.000 0 0 0
-24.000 8.000 -24.000 0 0 0
-24.000 8.000 -16.000 0 0 0
-24.000 8.000 -8.000 0 0 0
-24.000 8.000 0.000 0 0 0
-24.000 8.000 8.000 5 0 0
-24.000 8.000 16.000 4 0 0
-24.000 8.000 24.000 3 0 0
-24.000 8.000 32.000 3 0 0
-24.000 16.000 -40.000 1 0 0
-24.000 16.000 -32.000 0 0 0
-24.000 16.000 -24.000 0 0 0
-24.000 16.000 -16.000 1 0 0
-24.000 16.000 -8.000 2 0 0
-24.000 16.000 0.000 2 0 0
-24.000 16.000 8.000 1 0 0
-24.000 16.000 16.000 0 0 0
-24.000 16.000 24.000 0 0 0
-24.000 16.000 32.000 1 0 0
-24.000 24.000 -40.000 2 0 0
-24.000 24.000 -32.000 2 0 0
-24.000 24.000 -24.000 1 0 0
-24.000 24.000 -16.000 3 0 0
-24.000 24.000 -8.000 2 0 0
-24.000 24.000 0.000 0 0 0
-24.000 24.000 8.000 0 0 0
-24.000 24.000 16.000 0 0 0
-24.000 24.000 24.000 0 0 0
-24.000 24.000 32.000 0 0 0
-24.000 32.000 -40.000 3 0 0
-24.000 32.000 -32.000 2 0 0
-24.000 32.000 -24.000 1 0 0
-24.000 32.000 -16.000 0 0 0
-24.000 32.000 -8.000 1 0 0
-24.000 32.000 0.000 0 0 0
-24.000 32.000 8.000 1 0 0
-24.000 32.000 16.000 0 0 0
-24.000 32.000 24.000 0 0 0
-24.000 32.000 32.000 0 0 0
-16.000 -40.000 -40.000 4 0 0
-16.000 -40.000 -32.000 3 0 0
-16.000 -40.000 -24.000 1 0 0
-16.000 -40.000 -16.000 0 0 0
-16.000 -40.000 -8.000 1 0 0
-16.000 -40.000 0.000 0 0 0
-16.000 -40.000 8.000 1 0 0
-16.000 -40.000 16.000 0 0 0
-16.000 -40.000 24.000 0 0 0
-16.000 -40.000 32.000 0 0 0
-16.000 -32.000 -40.000 3 0 0
-16.000 -32.000 -32.000 2 0 0
-16.000 -32.000 -24.000 1 0 0
-16.000 -32.000 -16.000 0 0 0
-16.000 -32.000 -8.000 0 0 0
-16.000 -32.000 0.000 0 0 0
-16.000 -32.000 8.000 2 0 0
-16.000 -32.000 16.000 0 0 0
-16.000 -32.000 24.000 0 0 0
-16.000 -32.000 32.000 0 0 0
-16.000 -24.000 -40.000 6 0 0
-16.000 -24.000 -32.000 2 0 0
-16.000 -24.000 -24.000 2 0 0
-16.000 -24.000 -16.000 0 0 0
-16.000 -24.000 -8.000 0 0 0
-16.000 -24.000 0.000 0 0 0
-16.000 -24.000 8.000 1 0 0
-16.000 -24.000 16.000 0 0 0
-16.000 -24.000 24.000 0 0 0
-16.000 -24.000 32.000 0 0 0
-16.000 -16.000 -40.000 3 0 0
-16.000 -16.000 -32.000 2 0 0
-16.000 -16.000 -24.000 2 0 0
-16.000 -16.000 -16.000 1 0 0
-16.000 -16.000 -8.000 3 0 0
-16.000 -16.000 0.000 0 0 0
-16.000 -16.000 8.000 0 0 0
-16.000 -16.000 16.000 0 0 0
-16.000 -16.000 24.000 0 0 0
-16.000 -16.000 32.000 0 0 0
-16.000 -8.000 -40.000 3 0 0
-16.000 -8.000 -32.000 1 0 0
-16.000 -8.000 -24.000 1 0 0
-16.000 -8.000 -16.000 0 0 0
-16.000 -8.000 -8.000 1 0 0
-16.000 -8.000 0.000 2 0 0
-16.000 -8.000 8.000 2 0 0
-16.000 -8.000 16.000 1 0 0
-16.000 -8.000 24.000 0 0 0
-16.000 -8.000 32.000 1 0 0
-16.000 0.000 -40.000 3 0 0
-16.000 0.000 -32.000 1 0 0
-16.000 0.000 -24.000 0 0 0
-16.000 0.000 -16.000 0 0 0
-16.000 0.000 -8.000 0 0 0
-16.000 0.000 0.000 0 0 0
-16.000 0.000 8.000 0 0 0
-16.000 0.000 16.000 1 0 0
-16.000 0.000 24.000 0 0 0
-16.000 0.000 32.000 2 0 0
-16.000 8.000 -40.000 4 0 0
-16.000 8.000 -32.000 1 0 0
-16.000 8.000 -24.000 1 0 0
-16.000 8.000 -16.000 0 0 0
-16.000 8.000 -8.000 0 0 0
-16.000 8.000 0.000 1 0 0
-16.000 8.000 8.000 1 0 0
-16.000 8.000 16.000 1 0 0
-16.000 8.000 24.000 1 0 0
-16.000 8.000 32.000 3 0 0
-16.000 16.000 -40.000 3 0 0
-16.000 16.000 -32.000 3 0 0
-16.000 16.000 -24.000 1 0 0
-16.000 16.000 -16.000 1 0 0
-16.000 16.000 -8.000 2 0 0
-16.000 16.000 0.000 0 0 0
-16.000 16.000 8.000 0 0 0
-16.000 16.000 16.000 0 0 0
-16.000 16.000 24.000 0 0 0
-16.000 16.000 32.000 0 0 0
-16.000 24.000 -40.000 7 0 0
-16.000 24.000 -32.000 3 0 0
-16.000 24.000 -24.000 2 0 0
-16.000 24.000 -16.000 0 0 0
-16.000 24.000 -8.000 0 0 0
-16.000 24.000 0.000 0 0 0
-16.000 24.000 8.000 0 0 0
-16.000 24.000 16.000 0 0 0
-16.000 24.000 24.000 0 0 0
-16.000 24.000 32.000 0 0 0
-16.000 32.000 -40.000 4 0 0
-16.000 32.000 -32.000 3 0 0
-16.000 32.000 -24.000 1 0 0
-16.000 32.000 -16.000 0 0 0
-16.000 32.000 -8.000 1 0 0
-16.000 32.000 0.000 0 0 0
-16.000 32.000 8.000 1 0 0
-16.000 32.000 16.000 0 0 0
-16.000 32.000 24.000 0 0 0
-16.000 32.000 32.000 0 0 0
-8.000 -40.000 -40.000 5 0 0
-8.000 -40.000 -32.000 3 0 0
-8.000 -40.000 -24.000 8 0 0
-8.000 -40.000 -16.000 7 0 0
-8.000 -40.000 -8.000 4 0 0
-8.000 -40.000 0.000 0 0 0
-8.000 -40.000 8.000 3 0 0
-8.000 -40.000 16.000 0 0 0
-8.000 -40.000 24.000 1 0 0
-8.000 -40.000 32.000 1 0 0
-8.000 -32.000 -40.000 3 0 0
-8.000 -32.000 -32.000 5 0 0
-8.000 -32.000 -24.000 7 0 0
-8.000 -32.000 -16.000 6 0 0
-8.000 -32.000 -8.000 4 0 0
-8.000 -32.000 0.000 1 0 0
-8.000 -32.000 8.000 1 0 0
-8.000 -32.000 16.000 0 0 0
-8.000 -32.000 24.000 0 0 0
-8.000 -32.000 32.000 1 0 0
-8.000 -24.000 -40.000 7 0 0
-8.000 -24.000 -32.000 5 0 0
-8.000 -24.000 -24.000 6 0 0
-8.000 -24.000 -16.000 5 0 0
-8.000 -24.000 -8.000 0 0 0
-8.000 -24.000 0.000 1 0 0
-8.000 -24.000 8.000 0 0 0
-8.000 -24.000 16.000 1 0 0
-8.000 -24.000 24.000 1 0 0
-8.000 -24.000 32.000 0 0 0
-8.000 -16.000 -40.000 2 0 0
-8.000 -16.000 -32.000 4 0 0
-8.000 -16.000 -24.000 6 0 0
-8.000 -16.000 -16.000 2 0 0
-8.000 -16.000 -8.000 0 0 0
-8.000 -16.000 0.000 0 0 0
-8.000 -16.000 8.000 0 0 0
-8.000 -16.000 16.000 0 0 0
-8.000 -16.000 24.000 0 0 0
-8.000 -16.000 32.000 0 0 0
-8.000 -8.000 -40.000 2 0 0
-8.000 -8.000 -32.000 5 0 0
-8.000 -8.000 -24.000 2 0 0
-8.000 -8.000 -16.000 3 0 0
-8.000 -8.000 -8.000 0 0 0
-8.000 -8.000 0.000 0 0 0
-8.000 -8.000 8.000 0 0 0
-8.000 -8.000 16.000 0 0 0
-8.000 -8.000 24.000 2 0 0
-8.000 -8.000 32.000 2 0 0
-8.000 0.000 -40.000 0 0 0
-8.000 0.000 -32.000 1 0 0
-8.000 0.000 -24.000 2 0 0
-8.000 0.000 -16.000 1 0 0
-8.000 0.000 -8.000 0 0 0
-8.000 0.000 0.000 0 0 0
-8.000 0.000 8.000 1 0 0
-8.000 0.000 16.000 2 0 0
-8.000 0.000 24.000 0 0 0
-8.000 0.000 32.000 1 0 0
-8.000 8.000 -40.000 5 0 0
-8.000 8.000 -32.000 4 0 0
-8.000 8.000 -24.000 1 0 0
-8.000 8.000 -16.000 2 0 0
-8.000 8.000 -8.000 0 0 0
-8.000 8.000 0.000 0 0 0
-8.000 8.000 8.000 0 0 0
-8.000 8.000 16.000 0 0 0
-8.000 8.000 24.000 3 0 0
-8.000 8.000 32.000 4 0 0
-8.000 16.000 -40.000 2 0 0
-8.000 16.000 -32.000 2 0 0
-8.000 16.000 -24.000 8 0 0
-8.000 16.000 -16.000 2 0 0
-8.000 16.000 -8.000 1 0 0
-8.000 16.000 0.000 0 0 0
-8.000 16.000 8.000 0 0 0
-8.000 16.000 16.000 0 0 0
-8.000 16.000 24.000 0 0 0
-8.000 16.000 32.000 1 0 0
-8.000 24.000 -40.000 6 0 0
-8.000 24.000 -32.000 7 0 0
-8.000 24.000 -24.000 4 0 0
-8.000 24.000 -16.000 4 0 0
-8.000 24.000 -8.000 1 0 0
-8.000 24.000 0.000 1 0 0
-8.000 24.000 8.000 0 0 0
-8.000 24.000 16.000 0 0 0
-8.000 24.000 24.000 0 0 0
-8.000 24.000 32.000 0 0 0
-8.000 32.000 -40.000 3 0 0
-8.000 32.000 -32.000 4 0 0
-8.000 32.000 -24.000 6 0 0
-8.000 32.000 -16.000 5 0 0
-8.000 32.000 -8.000 2 0 0
-8.000 32.000 0.000 1 0 0
-8.000 32.000 8.000 1 0 0
-8.000 32.000 16.000 0 0 0
-8.000 32.000 24.000 1 0 0
-8.000 32.000 32.000 0 0 0
0.000 -40.000 -40.000 0 0 0
0.000 -40.000 -32.000 0 0 0
0.000 -40.000 -24.000 0 0 0
0.000 -40.000 -16.000 0 0 0
0.000 -40.000 -8.000 0 0 0
0.000 -40.000 0.000 0 0 0
0.000 -40.000 8.000 1 0 0
0.000 -40.000 16.000 0 0 0
0.000 -40.000 24.000 0 0 0
0.000 -40.000 32.000 0 0 0
0.000 -32.000 -40.000 0 0 0
0.000 -32.000 -32.000 0 0 0
0.000 -32.000 -24.000 0 0 0
0.000 -32.000 -16.000 0 0 0
0.000 -32.000 -8.000 1 0 0
0.000 -32.000 0.000 0 0 0
0.000 -32.000 8.000 1 0 0
0.000 -32.000 16.000 0 0 0
0.000 -32.000 24.000 0 0 0
0.000 -32.000 32.000 0 0 0
0.000 -24.000 -40.000 1 0 0
0.000 -24.000 -32.000 0 0 0
0.000 -24.000 -24.000 0 0 0
0.000 -24.000 -16.000 0 0 0
0.000 -24.000 -8.000 0 0 0
0.000 -24.000 0.000 0 0 0
0.000 -24.000 8.000 0 0 0
0.000 -24.000 16.000 0 0 0
0.000 -24.000 24.000 0 0 0
0.000 -24.000 32.000 0 0 0
0.000 -16.000 -40.000 0 0 0
0.000 -16.000 -32.000 1 0 0
0.000 -16.000 -24.000 0 0 0
0.000 -16.000 -16.000 0 0 0
0.000 -16.000 -8.000 0 0 0
0.000 -16.000 0.000 0 0 0
0.000 -16.000 8.000 0 0 0
0.000 -16.000 16.000 0 0 0
0.000 -16.000 24.000 0 0 0
0.000 -16.000 32.000 2 0 0
0.000 -8.000 -40.000 1 0 0
0.000 -8.000 -32.000 1 0 0
0.000 -8.000 -24.000 2 0 0
0.000 -8.000 -16.000 2 0 0
0.000 -8.000 -8.000 0 0 0
0.000 -8.000 0.000 0 0 0
0.000 -8.000 8.000 0 0 0
0.000 -8.000 16.000 1 0 0
0.000 -8.000 24.000 3 0 0
0.000 -8.000 32.000 1 0 0
0.000 0.000 -40.000 0 0 0
0.000 0.000 -32.000 0 0 0
0.000 0.000 -24.000 0 0 0
0.000 0.000 -16.000 0 0 0
0.000 0.000 -8.000 0 0 0
0.000 0.000 0.000 0 0 0
0.000 0.000 8.000 0 0 0
0.000 0.000 16.000 0 0 0
0.000 0.000 24.000 0 0 0
0.000 0.000 32.000 0 0 0
0.000 8.000 -40.000 1 0 0
0.000 8.000 -32.000 2 0 0
0.000 8.000 -24.000 1 0 0
0.000 8.000 -16.000 2 0 0
0.000 8.000 -8.000 0 0 0
0.000 8.000 0.000 0 0 0
0.000 8.000 8.000 0 0 0
0.000 8.000 16.000 1 0 0
0.000 8.000 24.000 3 0 0
0.000 8.000 32.000 1 0 0
0.000 16.000 -40.000 1 0 0
0.000 16.000 -32.000 1 0 0
0.000 16.000 -24.000 0 0 0
0.000 16.000 -16.000 0 0 0
0.000 16.000 -8.000 0 0 0
0.000 16.000 0.000 0 0 0
0.000 16.000 8.000 0 0 0
0.000 16.000 16.000 0 0 0
0.000 16.000 24.000 0 0 0
0.000 16.000 32.000 1 0 0
0.000 24.000 -40.000 0 0 0
0.000 24.000 -32.000 0 0 0
0.000 24.000 -24.000 0 0 0
0.000 24.000 -16.000 0 0 0
0.000 24.000 -8.000 1 0 0
0.000 24.000 0.000 0 0 0
0.000 24.000 8.000 0 0 0
0.000 24.000 16.000 0 0 0
0.000 24.000 24.000 0 0 0
0.000 24.000 32.000 0 0 0
0.000 32.000 -40.000 0 0 0
0.000 32.000 -32.000 0 0 0
0.000 32.000 -24.000 0 0 0
0.000 32.000 -16.000 0 0 0
0.000 32.000 -8.000 0 0 0
0.000 32.000 0.000 0 0 0
0.000 32.000 8.000 0 0 0
0.000 32.000 16.000 0 0 0
0.000 32.000 24.000 0 0 0
0.000 32.000 32.000 0 0 0
8.000 -40.000 -40.000 1 0 0
8.000 -40.000 -32.000 0 0 0
8.000 -40.000 -24.000 0 0 0
8.000 -40.000 -16.000 0 0 0
8.000 -40.000 -8.000 1 0 0
8.000 -40.000 0.000 1 0 0
8.000 -40.000 8.000 4 0 0
8.000 -40.000 16.000 7 0 0
8.000 -40.000 24.000 5 0 0
8.000 -40.000 32.000 7 0 0
8.000 -32.000 -40.000 1 0 0
8.000 -32.000 -32.000 0 0 0
8.000 -32.000 -24.000 0 0 0
8.000 -32.000 -16.000 0 0 0
8.000 -32.000 -8.000 0 0 0
8.000 -32.000 0.000 2 0 0
8.000 -32.000 8.000 1 0 0
8.000 -32.000 16.000 5 0 0
8.000 -32.000 24.000 4 0 0
8.000 -32.000 32.000 4 0 0
8.000 -24.000 -40.000 1 0 0
8.000 -24.000 -32.000 0 0 0
8.000 -24.000 -24.000 0 0 0
8.000 -24.000 -16.000 0 0 0
8.000 -24.000 -8.000 1 0 0
8.000 -24.000 0.000 0 0 0
8.000 -24.000 8.000 0 0 0
8.000 -24.000 16.000 3 0 0
8.000 -24.000 24.000 6 0 0
8.000 -24.000 32.000 6 0 0
8.000 -16.000 -40.000 3 0 0
8.000 -16.000 -32.000 1 0 0
8.000 -16.000 -24.000 0 0 0
8.000 -16.000 -16.000 0 0 0
8.000 -16.000 -8.000 0 0 0
8.000 -16.000 0.000 0 0 0
8.000 -16.000 8.000 0 0 0
8.000 -16.000 16.000 1 0 0
8.000 -16.000 24.000 8 0 0
8.000 -16.000 32.000 4 0 0
8.000 -8.000 -40.000 6 0 0
8.000 -8.000 -32.000 1 0 0
8.000 -8.000 -24.000 3 0 0
8.000 -8.000 -16.000 1 0 0
8.000 -8.000 -8.000 0 0 0
8.000 -8.000 0.000 0 0 0
8.000 -8.000 8.000 0 0 0
8.000 -8.000 16.000 3 0 0
8.000 -8.000 24.000 2 0 0
8.000 -8.000 32.000 4 0 0
8.000 0.000 -40.000 0 0 0
8.000 0.000 -32.000 0 0 0
8.000 0.000 -24.000 0 0 0
8.000 0.000 -16.000 1 0 0
8.000 0.000 -8.000 1 0 0
8.000 0.000 0.000 0 0 0
8.000 0.000 8.000 0 0 0
8.000 0.000 16.000 1 0 0
8.000 0.000 24.000 4 0 0
8.000 0.000 32.000 4 0 0
8.000 8.000 -40.000 7 0 0
8.000 8.000 -32.000 0 0 0
8.000 8.000 -24.000 2 0 0
8.000 8.000 -16.000 1 0 0
8.000 8.000 -8.000 0 0 0
8.000 8.000 0.000 0 0 0
8.000 8.000 8.000 0 0 0
8.000 8.000 16.000 3 0 0
8.000 8.000 24.000 2 0 0
8.000 8.000 32.000 5 0 0
8.000 16.000 -40.000 2 0 0
8.000 16.000 -32.000 1 0 0
8.000 16.000 -24.000 0 0 0
8.000 16.000 -16.000 0 0 0
8.000 16.000 -8.000 0 0 0
8.000 16.000 0.000 0 0 0
8.000 16.000 8.000 0 0 0
8.000 16.000 16.000 2 0 0
8.000 16.000 24.000 7 0 0
8.000 16.000 32.000 4 0 0
8.000 24.000 -40.000 1 0 0
8.000 24.000 -32.000 0 0 0
8.000 24.000 -24.000 1 0 0
8.000 24.000 -16.000 0 0 0
8.000 24.000 -8.000 0 0 0
8.000 24.000 0.000 0 0 0
8.000 24.000 8.000 0 0 0
8.000 24.000 16.000 3 0 0
8.000 24.000 24.000 4 0 0
8.000 24.000 32.000 6 0 0
8.000 32.000 -40.000 1 0 0
8.000 32.000 -32.000 0 0 0
8.000 32.000 -24.000 0 0 0
8.000 32.000 -16.000 1 0 0
8.000 32.000 -8.000 1 0 0
8.000 32.000 0.000 1 0 0
8.000 32.000 8.000 3 0 0
8.000 32.000 16.000 5 0 0
8.000 32.000 24.000 4 0 0
8.000 32.000 32.000 5 0 0
16.000 -40.000 -40.000 0 0 0
16.000 -40.000 -32.000 0 0 0
16.000 -40.000 -24.000 0 0 0
16.000 -40.000 -16.000 0 0 0
16.000 -40.000 -8.000 0 0 0
16.000 -40.000 0.000 0 0 0
16.000 -40.000 8.000 1 0 0
16.000 -40.000 16.000 0 0 0
16.000 -40.000 24.000 1 0 0
16.000 -40.000 32.000 2 0 0
16.000 -32.000 -40.000 0 0 0
16.000 -32.000 -32.000 0 0 0
16.000 -32.000 -24.000 0 0 0
16.000 -32.000 -16.000 0 0 0
16.000 -32.000 -8.000 1 0 0
16.000 -32.000 0.000 0 0 0
16.000 -32.000 8.000 1 0 0
16.000 -32.000 16.000 0 0 0
16.000 -32.000 24.000 1 0 0
16.000 -32.000 32.000 2 0 0
16.000 -24.000 -40.000 1 0 0
16.000 -24.000 -32.000 0 0 0
16.000 -24.000 -24.000 0 0 0
16.000 -24.000 -16.000 0 0 0
16.000 -24.000 -8.000 0 0 0
16.000 -24.000 0.000 0 0 0
16.000 -24.000 8.000 0 0 0
16.000 -24.000 16.000 0 0 0
16.000 -24.000 24.000 2 0 0
16.000 -24.000 32.000 2 0 0
16.000 -16.000 -40.000 1 0 0
16.000 -16.000 -32.000 0 0 0
16.000 -16.000 -24.000 0 0 0
16.000 -16.000 -16.000 0 0 0
16.000 -16.000 -8.000 1 0 0
16.000 -16.000 0.000 0 0 0
16.000 -16.000 8.000 2 0 0
16.000 -16.000 16.000 1 0 0
16.000 -16.000 24.000 2 0 0
16.000 -16.000 32.000 2 0 0
16.000 -8.000 -40.000 6 0 0
16.000 -8.000 -32.000 2 0 0
16.000 -8.000 -24.000 0 0 0
16.000 -8.000 -16.000 0 0 0
16.000 -8.000 -8.000 1 0 0
16.000 -8.000 0.000 2 0 0
16.000 -8.000 8.000 0 0 0
16.000 -8.000 16.000 0 0 0
16.000 -8.000 24.000 1 0 0
16.000 -8.000 32.000 1 0 0
16.000 0.000 -40.000 1 0 0
16.000 0.000 -32.000 1 0 0
16.000 0.000 -24.000 0 0 0
16.000 0.000 -16.000 1 0 0
16.000 0.000 -8.000 0 0 0
16.000 0.000 0.000 0 0 0
16.000 0.000 8.000 0 0 0
16.000 0.000 16.000 0 0 0
16.000 0.000 24.000 0 0 0
16.000 0.000 32.000 0 0 0
16.000 8.000 -40.000 4 0 0
16.000 8.000 -32.000 3 0 0
16.000 8.000 -24.000 2 0 0
16.000 8.000 -16.000 0 0 0
16.000 8.000 -8.000 2 0 0
16.000 8.000 0.000 2 0 0
16.000 8.000 8.000 0 0 0
16.000 8.000 16.000 1 0 0
16.000 8.000 24.000 0 0 0
16.000 8.000 32.000 1 0 0
16.000 16.000 -40.000 2 0 0
16.000 16.000 -32.000 0 0 0
16.000 16.000 -24.000 0 0 0
16.000 16.000 -16.000 0 0 0
16.000 16.000 -8.000 0 0 0
16.000 16.000 0.000 0 0 0
16.000 16.000 8.000 2 0 0
16.000 16.000 16.000 0 0 0
16.000 16.000 24.000 3 0 0
16.000 16.000 32.000 2 0 0
16.000 24.000 -40.000 0 0 0
16.000 24.000 -32.000 0 0 0
16.000 24.000 -24.000 0 0 0
16.000 24.000 -16.000 0 0 0
16.000 24.000 -8.000 1 0 0
16.000 24.000 0.000 0 0 0
16.000 24.000 8.000 0 0 0
16.000 24.000 16.000 0 0 0
16.000 24.000 24.000 1 0 0
16.000 24.000 32.000 2 0 0
16.000 32.000 -40.000 0 0 0
16.000 32.000 -32.000 0 0 0
16.000 32.000 -24.000 0 0 0
16.000 32.000 -16.000 0 0 0
16.000 32.000 -8.000 1 0 0
16.000 32.000 0.000 0 0 0
16.000 32.000 8.000 0 0 0
16.000 32.000 16.000 0 0 0
16.000 32.000 24.000 0 0 0
16.000 32.000 32.000 1 0 0
24.000 -40.000 -40.000 0 0 0
24.000 -40.000 -32.000 0 0 0
24.000 -40.000 -24.000 0 0 0
24.000 -40.000 -16.000 0 0 0
24.000 -40.000 -8.000 0 0 0
24.000 -40.000 0.000 0 0 0
24.000 -40.000 8.000 0 0 0
24.000 -40.000 16.000 0 0 0
24.000 -40.000 24.000 0 0 0
24.000 -40.000 32.000 1 0 0
24.000 -32.000 -40.000 0 0 0
24.000 -32.000 -32.000 0 0 0
24.000 -32.000 -24.000 0 0 0
24.000 -32.000 -16.000 0 0 0
24.000 -32.000 -8.000 1 0 0
24.000 -32.000 0.000 0 0 0
24.000 -32.000 8.000 1 0 0
24.000 -32.000 16.000 0 0 0
24.000 -32.000 24.000 1 0 0
24.000 -32.000 32.000 2 0 0
24.000 -24.000 -40.000 0 0 0
24.000 -24.000 -32.000 0 0 0
24.000 -24.000 -24.000 0 0 0
24.000 -24.000 -16.000 0 0 0
24.000 -24.000 -8.000 0 0 0
24.000 -24.000 0.000 0 0 0
24.000 -24.000 8.000 1 0 0
24.000 -24.000 16.000 2 0 0
24.000 -24.000 24.000 0 0 0
24.000 -24.000 32.000 2 0 0
24.000 -16.000 -40.000 1 0 0
24.000 -16.000 -32.000 0 0 0
24.000 -16.000 -24.000 1 0 0
24.000 -16.000 -16.000 0 0 0
24.000 -16.000 -8.000 0 0 0
24.000 -16.000 0.000 2 0 0
24.000 -16.000 8.000 3 0 0
24.000 -16.000 16.000 2 0 0
24.000 -16.000 24.000 0 0 0
24.000 -16.000 32.000 0 0 0
24.000 -8.000 -40.000 4 0 0
24.000 -8.000 -32.000 2 0 0
24.000 -8.000 -24.000 2 0 0
24.000 -8.000 -16.000 5 0 0
24.000 -8.000 -8.000 4 0 0
24.000 -8.000 0.000 1 0 0
24.000 -8.000 8.000 0 0 0
24.000 -8.000 16.000 0 0 0
24.000 -8.000 24.000 0 0 0
24.000 -8.000 32.000 0 0 0
24.000 0.000 -40.000 2 0 0
24.000 0.000 -32.000 0 0 0
24.000 0.000 -24.000 1 0 0
24.000 0.000 -16.000 0 0 0
24.000 0.000 -8.000 0 0 0
24.000 0.000 0.000 0 0 0
24.000 0.000 8.000 0 0 0
24.000 0.000 16.000 0 0 0
24.000 0.000 24.000 0 0 0
24.000 0.000 32.000 0 0 0
24.000 8.000 -40.000 4 0 0
24.000 8.000 -32.000 1 0 0
24.000 8.000 -24.000 1 0 0
24.000 8.000 -16.000 2 0 0
24.000 8.000 -8.000 5 0 0
24.000 8.000 0.000 0 0 0
24.000 8.000 8.000 1 0 0
24.000 8.000 16.000 0 0 0
24.000 8.000 24.000 0 0 0
24.000 8.000 32.000 1 0 0
24.000 16.000 -40.000 0 0 0
24.000 16.000 -32.000 0 0 0
24.000 16.000 -24.000 1 0 0
24.000 16.000 -16.000 0 0 0
24.000 16.000 -8.000 2 0 0
24.000 16.000 0.000 1 0 0
24.000 16.000 8.000 3 0 0
24.000 16.000 16.000 1 0 0
24.000 16.000 24.000 0 0 0
24.000 16.000 32.000 0 0 0
24.000 24.000 -40.000 0 0 0
24.000 24.000 -32.000 0 0 0
24.000 24.000 -24.000 0 0 0
24.000 24.000 -16.000 0 0 0
24.000 24.000 -8.000 0 0 0
24.000 24.000 0.000 0 0 0
24.000 24.000 8.000 0 0 0
24.000 24.000 16.000 2 0 0
24.000 24.000 24.000 0 0 0
24.000 24.000 32.000 2 0 0
24.000 32.000 -40.000 0 0 0
24.000 32.000 -32.000 0 0 0
24.000 32.000 -24.000 0 0 0
24.000 32.000 -16.000 0 0 0
24.000 32.000 -8.000 0 0 0
24.000 32.000 0.000 0 0 0
24.000 32.000 8.000 1 0 0
24.000 32.000 16.000 0 0 0
24.000 32.000 24.000 0 0 0
24.000 32.000 32.000 2 0 0
32.000 -40.000 -40.000 0 0 0
32.000 -40.000 -32.000 0 0 0
32.000 -40.000 -24.000 0 0 0
32.000 -40.000 -16.000 0 0 0
32.000 -40.000 -8.000 3 0 0
32.000 -40.000 0.000 0 0 0
32.000 -40.000 8.000 3 0 0
32.000 -40.000 16.000 0 0 0
32.000 -40.000 24.000 0 0 0
32.000 -40.000 32.000 2 0 0
32.000 -32.000 -40.000 0 0 0
32.000 -32.000 -32.000 0 0 0
32.000 -32.000 -24.000 0 0 0
32.000 -32.000 -16.000 0 0 0
32.000 -32.000 -8.000 0 0 0
32.000 -32.000 0.000 0 0 0
32.000 -32.000 8.000 1 0 0
32.000 -32.000 16.000 1 0 0
32.000 -32.000 24.000 3 0 0
32.000 -32.000 32.000 1 0 0
32.000 -24.000 -40.000 0 0 0
32.000 -24.000 -32.000 0 0 0
32.000 -24.000 -24.000 0 0 0
32.000 -24.000 -16.000 1 0 0
32.000 -24.000 -8.000 3 0 0
32.000 -24.000 0.000 0 0 0
32.000 -24.000 8.000 5 0 0
32.000 -24.000 16.000 4 0 0
32.000 -24.000 24.000 2 0 0
32.000 -24.000 32.000 1 0 0
32.000 -16.000 -40.000 1 0 0
32.000 -16.000 -32.000 0 0 0
32.000 -16.000 -24.000 2 0 0
32.000 -16.000 -16.000 2 0 0
32.000 -16.000 -8.000 2 0 0
32.000 -16.000 0.000 3 0 0
32.000 -16.000 8.000 1 0 0
32.000 -16.000 16.000 0 0 0
32.000 -16.000 24.000 0 0 0
32.000 -16.000 32.000 0 0 0
32.000 -8.000 -40.000 7 0 0
32.000 -8.000 -32.000 2 0 0
32.000 -8.000 -24.000 4 0 0
32.000 -8.000 -16.000 5 0 0
32.000 -8.000 -8.000 3 0 0
32.000 -8.000 0.000 1 0 0
32.000 -8.000 8.000 2 0 0
32.000 -8.000 16.000 0 0 0
32.000 -8.000 24.000 1 0 0
32.000 -8.000 32.000 1 0 0
32.000 0.000 -40.000 1 0 0
32.000 0.000 -32.000 1 0 0
32.000 0.000 -24.000 0 0 0
32.000 0.000 -16.000 0 0 0
32.000 0.000 -8.000 0 0 0
32.000 0.000 0.000 0 0 0
32.000 0.000 8.000 0 0 0
32.000 0.000 16.000 0 0 0
32.000 0.000 24.000 0 0 0
32.000 0.000 32.000 0 0 0
32.000 8.000 -40.000 7 0 0
32.000 8.000 -32.000 4 0 0
32.000 8.000 -24.000 3 0 0
32.000 8.000 -16.000 5 0 0
32.000 8.000 -8.000 3 0 0
32.000 8.000 0.000 0 0 0
32.000 8.000 8.000 1 0 0
32.000 8.000 16.000 1 0 0
32.000 8.000 24.000 0 0 0
32.000 8.000 32.000 0 0 0
32.000 16.000 -40.000 0 0 0
32.000 16.000 -32.000 0 0 0
32.000 16.000 -24.000 1 0 0
32.000 16.000 -16.000 2 0 0
32.000 16.000 -8.000 3 0 0
32.000 16.000 0.000 2 0 0
32.000 16.000 8.000 1 0 0
32.000 16.000 16.000 0 0 0
32.000 16.000 24.000 0 0 0
32.000 16.000 32.000 0 0 0
32.000 24.000 -40.000 0 0 0
32.000 24.000 -32.000 1 0 0
32.000 24.000 -24.000 0 0 0
32.000 24.000 -16.000 0 0 0
32.000 24.000 -8.000 1 0 0
32.000 24.000 0.000 0 0 0
32.000 24.000 8.000 6 0 0
32.000 24.000 16.000 2 0 0
32.000 24.000 24.000 3 0 0
32.000 24.000 32.000 1 0 0
32.000 32.000 -40.000 0 0 0
32.000 32.000 -32.000 0 0 0
32.000 32.000 -24.000 0 0 0
32.000 32.000 -16.000 1 0 0
32.000 32.000 -8.000 0 0 0
32.000 32.000 0.000 0 0 0
32.000 32.000 8.000 0 0 0
32.000 32.000 16.000 1 0 0
32.000 32.000 24.000 2 0 0
32.000 32.000 32.000 0 0 0
