ply
format ascii 1.0
element vertex 800
property float x
property float y
property float z
property uchar red
property uchar green
property uchar blue
end_header
-50.000 -50.000 -1.000 84 0 0
-50.000 -50.000 0.000 31 0 0
-50.000 -45.000 -1.000 119 0 0
-50.000 -45.000 0.000 44 0 0
-50.000 -40.000 -1.000 47 0 0
-50.000 -40.000 0.000 99 0 0
-50.000 -35.000 -1.000 43 0 0
-50.000 -35.000 0.000 132 0 0
-50.000 -30.000 -1.000 136 0 0
-50.000 -30.000 0.000 40 0 0
-50.000 -25.000 -1.000 205 0 0
-50.000 -25.000 0.000 202 0 0
-50.000 -20.000 -1.000 154 0 0
-50.000 -20.000 0.000 44 0 0
-50.000 -15.000 -1.000 74 0 0
-50.000 -15.000 0.000 113 0 0
-50.000 -10.000 -1.000 95 0 0
-50.000 -10.000 0.000 60 0 0
-50.000 -5.000 -1.000 85 0 0
-50.000 -5.000 0.000 17 0 0
-50.000 0.000 -1.000 171 0 0
-50.000 0.000 0.000 78 0 0
-50.000 5.000 -1.000 73 0 0
-50.000 5.000 0.000 17 0 0
-50.000 10.000 -1.000 132 0 0
-50.000 10.000 0.000 29 0 0
-50.000 15.000 -1.000 71 0 0
-50.000 15.000 0.000 76 0 0
-50.000 20.000 -1.000 93 0 0
-50.000 20.000 0.000 161 0 0
-50.000 25.000 -1.000 105 0 0
-50.000 25.000 0.000 202 0 0
-50.000 30.000 -1.000 97 0 0
-50.000 30.000 0.000 38 0 0
-50.000 35.000 -1.000 117 0 0
-50.000 35.000 0.000 50 0 0
-50.000 40.000 -1.000 21 0 0
-50.000 40.000 0.000 117 0 0
-50.000 45.000 -1.000 151 0 0
-50.000 45.000 0.000 63 0 0
-45.000 -50.000 -1.000 93 0 0
-45.000 -50.000 0.000 120 0 0
-45.000 -45.000 -1.000 120 0 0
-45.000 -45.000 0.000 79 0 0
-45.000 -40.000 -1.000 103 0 0
-45.000 -40.000 0.000 28 0 0
-45.000 -35.000 -1.000 103 0 0
-45.000 -35.000 0.000 94 0 0
-45.000 -30.000 -1.000 196 0 0
-45.000 -30.000 0.000 113 0 0
-45.000 -25.000 -1.000 172 0 0
-45.000 -25.000 0.000 79 0 0
-45.000 -20.000 -1.000 119 0 0
-45.000 -20.000 0.000 37 0 0
-45.000 -15.000 -1.000 130 0 0
-45.000 -15.000 0.000 57 0 0
-45.000 -10.000 -1.000 57 0 0
-45.000 -10.000 0.000 43 0 0
-45.000 -5.000 -1.000 65 0 0
-45.000 -5.000 0.000 87 0 0
-45.000 0.000 -1.000 49 0 0
-45.000 0.000 0.000 41 0 0
-45.000 5.000 -1.000 102 0 0
-45.000 5.000 0.000 127 0 0
-45.000 10.000 -1.000 123 0 0
-45.000 10.000 0.000 122 0 0
-45.000 15.000 -1.000 215 0 0
-45.000 15.000 0.000 55 0 0
-45.000 20.000 -1.000 175 0 0
-45.000 20.000 0.000 85 0 0
-45.000 25.000 -1.000 255 0 0
-45.000 25.000 0.000 24 0 0
-45.000 30.000 -1.000 144 0 0
-45.000 30.000 0.000 111 0 0
-45.000 35.000 -1.000 118 0 0
-45.000 35.000 0.000 103 0 0
-45.000 40.000 -1.000 25 0 0
-45.000 40.000 0.000 66 0 0
-45.000 45.000 -1.000 115 0 0
-45.000 45.000 0.000 91 0 0
-40.000 -50.000 -1.000 146 0 0
-40.000 -50.000 0.000 48 0 0
-40.000 -45.000 -1.000 134 0 0
-40.000 -45.000 0.000 100 0 0
-40.000 -40.000 -1.000 22 0 0
-40.000 -40.000 0.000 39 0 0
-40.000 -35.000 -1.000 12 0 0
-40.000 -35.000 0.000 114 0 0
-40.000 -30.000 -1.000 158 0 0
-40.000 -30.000 0.000 87 0 0
-40.000 -25.000 -1.000 52 0 0
-40.000 -25.000 0.000 174 0 0
-40.000 -20.000 -1.000 110 0 0
-40.000 -20.000 0.000 249 0 0
-40.000 -15.000 -1.000 63 0 0
-40.000 -15.000 0.000 66 0 0
-40.000 -10.000 -1.000 56 0 0
-40.000 -10.000 0.000 43 0 0
-40.000 -5.000 -1.000 108 0 0
-40.000 -5.000 0.000 18 0 0
-40.000 0.000 -1.000 55 0 0
-40.000 0.000 0.000 6 0 0
-40.000 5.000 -1.000 123 0 0
-40.000 5.000 0.000 90 0 0
-40.000 10.000 -1.000 69 0 0
-40.000 10.000 0.000 66 0 0
-40.000 15.000 -1.000 85 0 0
-40.000 15.000 0.000 100 0 0
-40.000 20.000 -1.000 100 0 0
-40.000 20.000 0.000 161 0 0
-40.000 25.000 -1.000 83 0 0
-40.000 25.000 0.000 84 0 0
-40.000 30.000 -1.000 114 0 0
-40.000 30.000 0.000 60 0 0
-40.000 35.000 -1.000 38 0 0
-40.000 35.000 0.000 22 0 0
-40.000 40.000 -1.000 90 0 0
-40.000 40.000 0.000 60 0 0
-40.000 45.000 -1.000 132 0 0
-40.000 45.000 0.000 33 0 0
-35.000 -50.000 -1.000 52 0 0
-35.000 -50.000 0.000 12 0 0
-35.000 -45.000 -1.000 29 0 0
-35.000 -45.000 0.000 11 0 0
-35.000 -40.000 -1.000 125 0 0
-35.000 -40.000 0.000 26 0 0
-35.000 -35.000 -1.000 100 0 0
-35.000 -35.000 0.000 117 0 0
-35.000 -30.000 -1.000 86 0 0
-35.000 -30.000 0.000 96 0 0
-35.000 -25.000 -1.000 144 0 0
-35.000 -25.000 0.000 81 0 0
-35.000 -20.000 -1.000 68 0 0
-35.000 -20.000 0.000 32 0 0
-35.000 -15.000 -1.000 120 0 0
-35.000 -15.000 0.000 53 0 0
-35.000 -10.000 -1.000 45 0 0
-35.000 -10.000 0.000 11 0 0
-35.000 -5.000 -1.000 63 0 0
-35.000 -5.000 0.000 48 0 0
-35.000 0.000 -1.000 48 0 0
-35.000 0.000 0.000 65 0 0
-35.000 5.000 -1.000 108 0 0
-35.000 5.000 0.000 35 0 0
-35.000 10.000 -1.000 62 0 0
-35.000 10.000 0.000 19 0 0
-35.000 15.000 -1.000 101 0 0
-35.000 15.000 0.000 93 0 0
-35.000 20.000 -1.000 172 0 0
-35.000 20.000 0.000 122 0 0
-35.000 25.000 -1.000 123 0 0
-35.000 25.000 0.000 115 0 0
-35.000 30.000 -1.000 90 0 0
-35.000 30.000 0.000 97 0 0
-35.000 35.000 -1.000 124 0 0
-35.000 35.000 0.000 82 0 0
-35.000 40.000 -1.000 88 0 0
-35.000 40.000 0.000 14 0 0
-35.000 45.000 -1.000 44 0 0
-35.000 45.000 0.000 105 0 0
-30.000 -50.000 -1.000 88 0 0
-30.000 -50.000 0.000 80 0 0
-30.000 -45.000 -1.000 60 0 0
-30.000 -45.000 0.000 25 0 0
-30.000 -40.000 -1.000 92 0 0
-30.000 -40.000 0.000 59 0 0
-30.000 -35.000 -1.000 142 0 0
-30.000 -35.000 0.000 33 0 0
-30.000 -30.000 -1.000 114 0 0
-30.000 -30.000 0.000 98 0 0
-30.000 -25.000 -1.000 63 0 0
-30.000 -25.000 0.000 23 0 0
-30.000 -20.000 -1.000 88 0 0
-30.000 -20.000 0.000 41 0 0
-30.000 -15.000 -1.000 123 0 0
-30.000 -15.000 0.000 83 0 0
-30.000 -10.000 -1.000 89 0 0
-30.000 -10.000 0.000 67 0 0
-30.000 -5.000 -1.000 14 0 0
-30.000 -5.000 0.000 50 0 0
-30.000 0.000 -1.000 64 0 0
-30.000 0.000 0.000 15 0 0
-30.000 5.000 -1.000 69 0 0
-30.000 5.000 0.000 26 0 0
-30.000 10.000 -1.000 42 0 0
-30.000 10.000 0.000 82 0 0
-30.000 15.000 -1.000 80 0 0
-30.000 15.000 0.000 43 0 0
-30.000 20.000 -1.000 30 0 0
-30.000 20.000 0.000 89 0 0
-30.000 25.000 -1.000 50 0 0
-30.000 25.000 0.000 73 0 0
-30.000 30.000 -1.000 106 0 0
-30.000 30.000 0.000 87 0 0
-30.000 35.000 -1.000 102 0 0
-30.000 35.000 0.000 94 0 0
-30.000 40.000 -1.000 132 0 0
-30.000 40.000 0.000 37 0 0
-30.000 45.000 -1.000 107 0 0
-30.000 45.000 0.000 43 0 0
-25.000 -50.000 -1.000 128 0 0
-25.000 -50.000 0.000 53 0 0
-25.000 -45.000 -1.000 107 0 0
-25.000 -45.000 0.000 35 0 0
-25.000 -40.000 -1.000 72 0 0
-25.000 -40.000 0.000 42 0 0
-25.000 -35.000 -1.000 89 0 0
-25.000 -35.000 0.000 40 0 0
-25.000 -30.000 -1.000 85 0 0
-25.000 -30.000 0.000 62 0 0
-25.000 -25.000 -1.000 84 0 0
-25.000 -25.000 0.000 38 0 0
-25.000 -20.000 -1.000 41 0 0
-25.000 -20.000 0.000 31 0 0
-25.000 -15.000 -1.000 46 0 0
-25.000 -15.000 0.000 25 0 0
-25.000 -10.000 -1.000 64 0 0
-25.000 -10.000 0.000 87 0 0
-25.000 -5.000 -1.000 36 0 0
-25.000 -5.000 0.000 40 0 0
-25.000 0.000 -1.000 64 0 0
-25.000 0.000 0.000 34 0 0
-25.000 5.000 -1.000 31 0 0
-25.000 5.000 0.000 44 0 0
-25.000 10.000 -1.000 62 0 0
-25.000 10.000 0.000 49 0 0
-25.000 15.000 -1.000 92 0 0
-25.000 15.000 0.000 37 0 0
-25.000 20.000 -1.000 33 0 0
-25.000 20.000 0.000 105 0 0
-25.000 25.000 -1.000 73 0 0
-25.000 25.000 0.000 59 0 0
-25.000 30.000 -1.000 94 0 0
-25.000 30.000 0.000 44 0 0
-25.000 35.000 -1.000 103 0 0
-25.000 35.000 0.000 17 0 0
-25.000 40.000 -1.000 29 0 0
-25.000 40.000 0.000 46 0 0
-25.000 45.000 -1.000 126 0 0
-25.000 45.000 0.000 13 0 0
-20.000 -50.000 -1.000 70 0 0
-20.000 -50.000 0.000 74 0 0
-20.000 -45.000 -1.000 105 0 0
-20.000 -45.000 0.000 33 0 0
-20.000 -40.000 -1.000 81 0 0
-20.000 -40.000 0.000 58 0 0
-20.000 -35.000 -1.000 56 0 0
-20.000 -35.000 0.000 12 0 0
-20.000 -30.000 -1.000 37 0 0
-20.000 -30.000 0.000 21 0 0
-20.000 -25.000 -1.000 49 0 0
-20.000 -25.000 0.000 28 0 0
-20.000 -20.000 -1.000 64 0 0
-20.000 -20.000 0.000 35 0 0
-20.000 -15.000 -1.000 46 0 0
-20.000 -15.000 0.000 85 0 0
-20.000 -10.000 -1.000 39 0 0
-20.000 -10.000 0.000 33 0 0
-20.000 -5.000 -1.000 21 0 0
-20.000 -5.000 0.000 44 0 0
-20.000 0.000 -1.000 29 0 0
-20.000 0.000 0.000 37 0 0
-20.000 5.000 -1.000 23 0 0
-20.000 5.000 0.000 46 0 0
-20.000 10.000 -1.000 71 0 0
-20.000 10.000 0.000 44 0 0
-20.000 15.000 -1.000 41 0 0
-20.000 15.000 0.000 8 0 0
-20.000 20.000 -1.000 52 0 0
-20.000 20.000 0.000 9 0 0
-20.000 25.000 -1.000 69 0 0
-20.000 25.000 0.000 28 0 0
-20.000 30.000 -1.000 66 0 0
-20.000 30.000 0.000 36 0 0
-20.000 35.000 -1.000 84 0 0
-20.000 35.000 0.000 64 0 0
-20.000 40.000 -1.000 78 0 0
-20.000 40.000 0.000 50 0 0
-20.000 45.000 -1.000 125 0 0
-20.000 45.000 0.000 46 0 0
-15.000 -50.000 -1.000 130 0 0
-15.000 -50.000 0.000 25 0 0
-15.000 -45.000 -1.000 40 0 0
-15.000 -45.000 0.000 43 0 0
-15.000 -40.000 -1.000 83 0 0
-15.000 -40.000 0.000 46 0 0
-15.000 -35.000 -1.000 70 0 0
-15.000 -35.000 0.000 16 0 0
-15.000 -30.000 -1.000 106 0 0
-15.000 -30.000 0.000 47 0 0
-15.000 -25.000 -1.000 59 0 0
-15.000 -25.000 0.000 25 0 0
-15.000 -20.000 -1.000 41 0 0
-15.000 -20.000 0.000 31 0 0
-15.000 -15.000 -1.000 33 0 0
-15.000 -15.000 0.000 26 0 0
-15.000 -10.000 -1.000 45 0 0
-15.000 -10.000 0.000 48 0 0
-15.000 -5.000 -1.000 37 0 0
-15.000 -5.000 0.000 8 0 0
-15.000 0.000 -1.000 29 0 0
-15.000 0.000 0.000 18 0 0
-15.000 5.000 -1.000 8 0 0
-15.000 5.000 0.000 19 0 0
-15.000 10.000 -1.000 39 0 0
-15.000 10.000 0.000 70 0 0
-15.000 15.000 -1.000 48 0 0
-15.000 15.000 0.000 29 0 0
-15.000 20.000 -1.000 35 0 0
-15.000 20.000 0.000 11 0 0
-15.000 25.000 -1.000 71 0 0
-15.000 25.000 0.000 39 0 0
-15.000 30.000 -1.000 113 0 0
-15.000 30.000 0.000 59 0 0
-15.000 35.000 -1.000 95 0 0
-15.000 35.000 0.000 15 0 0
-15.000 40.000 -1.000 85 0 0
-15.000 40.000 0.000 13 0 0
-15.000 45.000 -1.000 32 0 0
-15.000 45.000 0.000 32 0 0
-10.000 -50.000 -1.000 63 0 0
-10.000 -50.000 0.000 51 0 0
-10.000 -45.000 -1.000 74 0 0
-10.000 -45.000 0.000 74 0 0
-10.000 -40.000 -1.000 121 0 0
-10.000 -40.000 0.000 46 0 0
-10.000 -35.000 -1.000 84 0 0
-10.000 -35.000 0.000 84 0 0
-10.000 -30.000 -1.000 100 0 0
-10.000 -30.000 0.000 38 0 0
-10.000 -25.000 -1.000 57 0 0
-10.000 -25.000 0.000 30 0 0
-10.000 -20.000 -1.000 29 0 0
-10.000 -20.000 0.000 16 0 0
-10.000 -15.000 -1.000 22 0 0
-10.000 -15.000 0.000 13 0 0
-10.000 -10.000 -1.000 28 0 0
-10.000 -10.000 0.000 19 0 0
-10.000 -5.000 -1.000 12 0 0
-10.000 -5.000 0.000 37 0 0
-10.000 0.000 -1.000 10 0 0
-10.000 0.000 0.000 28 0 0
-10.000 5.000 -1.000 28 0 0
-10.000 5.000 0.000 42 0 0
-10.000 10.000 -1.000 26 0 0
-10.000 10.000 0.000 5 0 0
-10.000 15.000 -1.000 22 0 0
-10.000 15.000 0.000 40 0 0
-10.000 20.000 -1.000 12 0 0
-10.000 20.000 0.000 40 0 0
-10.000 25.000 -1.000 44 0 0
-10.000 25.000 0.000 9 0 0
-10.000 30.000 -1.000 80 0 0
-10.000 30.000 0.000 35 0 0
-10.000 35.000 -1.000 104 0 0
-10.000 35.000 0.000 32 0 0
-10.000 40.000 -1.000 103 0 0
-10.000 40.000 0.000 61 0 0
-10.000 45.000 -1.000 67 0 0
-10.000 45.000 0.000 37 0 0
-5.000 -50.000 -1.000 61 0 0
-5.000 -50.000 0.000 49 0 0
-5.000 -45.000 -1.000 107 0 0
-5.000 -45.000 0.000 149 0 0
-5.000 -40.000 -1.000 49 0 0
-5.000 -40.000 0.000 51 0 0
-5.000 -35.000 -1.000 82 0 0
-5.000 -35.000 0.000 53 0 0
-5.000 -30.000 -1.000 42 0 0
-5.000 -30.000 0.000 31 0 0
-5.000 -25.000 -1.000 49 0 0
-5.000 -25.000 0.000 12 0 0
-5.000 -20.000 -1.000 56 0 0
-5.000 -20.000 0.000 14 0 0
-5.000 -15.000 -1.000 40 0 0
-5.000 -15.000 0.000 24 0 0
-5.000 -10.000 -1.000 12 0 0
-5.000 -10.000 0.000 17 0 0
-5.000 -5.000 -1.000 3 0 0
-5.000 -5.000 0.000 15 0 0
-5.000 0.000 -1.000 1 0 0
-5.000 0.000 0.000 12 0 0
-5.000 5.000 -1.000 7 0 0
-5.000 5.000 0.000 17 0 0
-5.000 10.000 -1.000 6 0 0
-5.000 10.000 0.000 6 0 0
-5.000 15.000 -1.000 30 0 0
-5.000 15.000 0.000 39 0 0
-5.000 20.000 -1.000 30 0 0
-5.000 20.000 0.000 32 0 0
-5.000 25.000 -1.000 31 0 0
-5.000 25.000 0.000 47 0 0
-5.000 30.000 -1.000 62 0 0
-5.000 30.000 0.000 43 0 0
-5.000 35.000 -1.000 68 0 0
-5.000 35.000 0.000 95 0 0
-5.000 40.000 -1.000 86 0 0
-5.000 40.000 0.000 56 0 0
-5.000 45.000 -1.000 91 0 0
-5.000 45.000 0.000 73 0 0
0.000 -50.000 -1.000 233 0 0
0.000 -50.000 0.000 101 0 0
0.000 -45.000 -1.000 192 0 0
0.000 -45.000 0.000 70 0 0
0.000 -40.000 -1.000 67 0 0
0.000 -40.000 0.000 92 0 0
0.000 -35.000 -1.000 104 0 0
0.000 -35.000 0.000 53 0 0
0.000 -30.000 -1.000 168 0 0
0.000 -30.000 0.000 107 0 0
0.000 -25.000 -1.000 155 0 0
0.000 -25.000 0.000 22 0 0
0.000 -20.000 -1.000 71 0 0
0.000 -20.000 0.000 37 0 0
0.000 -15.000 -1.000 37 0 0
0.000 -15.000 0.000 17 0 0
0.000 -10.000 -1.000 40 0 0
0.000 -10.000 0.000 15 0 0
0.000 -5.000 -1.000 5 0 0
0.000 -5.000 0.000 11 0 0
0.000 0.000 -1.000 1 0 0
0.000 0.000 0.000 0 0 0
0.000 5.000 -1.000 8 0 0
0.000 5.000 0.000 8 0 0
0.000 10.000 -1.000 26 0 0
0.000 10.000 0.000 31 0 0
0.000 15.000 -1.000 36 0 0
0.000 15.000 0.000 28 0 0
0.000 20.000 -1.000 48 0 0
0.000 20.000 0.000 15 0 0
0.000 25.000 -1.000 103 0 0
0.000 25.000 0.000 62 0 0
0.000 30.000 -1.000 92 0 0
0.000 30.000 0.000 34 0 0
0.000 35.000 -1.000 105 0 0
0.000 35.000 0.000 39 0 0
0.000 40.000 -1.000 209 0 0
0.000 40.000 0.000 42 0 0
0.000 45.000 -1.000 159 0 0
0.000 45.000 0.000 25 0 0
5.000 -50.000 -1.000 140 0 0
5.000 -50.000 0.000 112 0 0
5.000 -45.000 -1.000 111 0 0
5.000 -45.000 0.000 234 0 0
5.000 -40.000 -1.000 73 0 0
5.000 -40.000 0.000 98 0 0
5.000 -35.000 -1.000 79 0 0
5.000 -35.000 0.000 93 0 0
5.000 -30.000 -1.000 81 0 0
5.000 -30.000 0.000 12 0 0
5.000 -25.000 -1.000 41 0 0
5.000 -25.000 0.000 60 0 0
5.000 -20.000 -1.000 39 0 0
5.000 -20.000 0.000 23 0 0
5.000 -15.000 -1.000 29 0 0
5.000 -15.000 0.000 73 0 0
5.000 -10.000 -1.000 26 0 0
5.000 -10.000 0.000 41 0 0
5.000 -5.000 -1.000 5 0 0
5.000 -5.000 0.000 14 0 0
5.000 0.000 -1.000 2 0 0
5.000 0.000 0.000 10 0 0
5.000 5.000 -1.000 11 0 0
5.000 5.000 0.000 18 0 0
5.000 10.000 -1.000 5 0 0
5.000 10.000 0.000 12 0 0
5.000 15.000 -1.000 32 0 0
5.000 15.000 0.000 15 0 0
5.000 20.000 -1.000 34 0 0
5.000 20.000 0.000 13 0 0
5.000 25.000 -1.000 48 0 0
5.000 25.000 0.000 26 0 0
5.000 30.000 -1.000 70 0 0
5.000 30.000 0.000 44 0 0
5.000 35.000 -1.000 110 0 0
5.000 35.000 0.000 39 0 0
5.000 40.000 -1.000 56 0 0
5.000 40.000 0.000 97 0 0
5.000 45.000 -1.000 89 0 0
5.000 45.000 0.000 90 0 0
10.000 -50.000 -1.000 160 0 0
10.000 -50.000 0.000 97 0 0
10.000 -45.000 -1.000 79 0 0
10.000 -45.000 0.000 57 0 0
10.000 -40.000 -1.000 79 0 0
10.000 -40.000 0.000 78 0 0
10.000 -35.000 -1.000 52 0 0
10.000 -35.000 0.000 101 0 0
10.000 -30.000 -1.000 42 0 0
10.000 -30.000 0.000 59 0 0
10.000 -25.000 -1.000 51 0 0
10.000 -25.000 0.000 25 0 0
10.000 -20.000 -1.000 39 0 0
10.000 -20.000 0.000 39 0 0
10.000 -15.000 -1.000 19 0 0
10.000 -15.000 0.000 43 0 0
10.000 -10.000 -1.000 18 0 0
10.000 -10.000 0.000 34 0 0
10.000 -5.000 -1.000 26 0 0
10.000 -5.000 0.000 22 0 0
10.000 0.000 -1.000 16 0 0
10.000 0.000 0.000 15 0 0
10.000 5.000 -1.000 12 0 0
10.000 5.000 0.000 15 0 0
10.000 10.000 -1.000 6 0 0
10.000 10.000 0.000 42 0 0
10.000 15.000 -1.000 18 0 0
10.000 15.000 0.000 18 0 0
10.000 20.000 -1.000 24 0 0
10.000 20.000 0.000 12 0 0
10.000 25.000 -1.000 34 0 0
10.000 25.000 0.000 82 0 0
10.000 30.000 -1.000 46 0 0
10.000 30.000 0.000 67 0 0
10.000 35.000 -1.000 53 0 0
10.000 35.000 0.000 88 0 0
10.000 40.000 -1.000 36 0 0
10.000 40.000 0.000 58 0 0
10.000 45.000 -1.000 70 0 0
10.000 45.000 0.000 102 0 0
15.000 -50.000 -1.000 119 0 0
15.000 -50.000 0.000 46 0 0
15.000 -45.000 -1.000 59 0 0
15.000 -45.000 0.000 56 0 0
15.000 -40.000 -1.000 67 0 0
15.000 -40.000 0.000 94 0 0
15.000 -35.000 -1.000 129 0 0
15.000 -35.000 0.000 74 0 0
15.000 -30.000 -1.000 66 0 0
15.000 -30.000 0.000 38 0 0
15.000 -25.000 -1.000 43 0 0
15.000 -25.000 0.000 49 0 0
15.000 -20.000 -1.000 43 0 0
15.000 -20.000 0.000 26 0 0
15.000 -15.000 -1.000 33 0 0
15.000 -15.000 0.000 68 0 0
15.000 -10.000 -1.000 49 0 0
15.000 -10.000 0.000 48 0 0
15.000 -5.000 -1.000 44 0 0
15.000 -5.000 0.000 23 0 0
15.000 0.000 -1.000 17 0 0
15.000 0.000 0.000 4 0 0
15.000 5.000 -1.000 9 0 0
15.000 5.000 0.000 15 0 0
15.000 10.000 -1.000 48 0 0
15.000 10.000 0.000 36 0 0
15.000 15.000 -1.000 43 0 0
15.000 15.000 0.000 87 0 0
15.000 20.000 -1.000 41 0 0
15.000 20.000 0.000 30 0 0
15.000 25.000 -1.000 74 0 0
15.000 25.000 0.000 63 0 0
15.000 30.000 -1.000 38 0 0
15.000 30.000 0.000 66 0 0
15.000 35.000 -1.000 28 0 0
15.000 35.000 0.000 67 0 0
15.000 40.000 -1.000 146 0 0
15.000 40.000 0.000 57 0 0
15.000 45.000 -1.000 89 0 0
15.000 45.000 0.000 78 0 0
20.000 -50.000 -1.000 79 0 0
20.000 -50.000 0.000 19 0 0
20.000 -45.000 -1.000 127 0 0
20.000 -45.000 0.000 84 0 0
20.000 -40.000 -1.000 93 0 0
20.000 -40.000 0.000 76 0 0
20.000 -35.000 -1.000 130 0 0
20.000 -35.000 0.000 36 0 0
20.000 -30.000 -1.000 18 0 0
20.000 -30.000 0.000 16 0 0
20.000 -25.000 -1.000 46 0 0
20.000 -25.000 0.000 91 0 0
20.000 -20.000 -1.000 49 0 0
20.000 -20.000 0.000 73 0 0
20.000 -15.000 -1.000 32 0 0
20.000 -15.000 0.000 89 0 0
20.000 -10.000 -1.000 50 0 0
20.000 -10.000 0.000 67 0 0
20.000 -5.000 -1.000 35 0 0
20.000 -5.000 0.000 13 0 0
20.000 0.000 -1.000 39 0 0
20.000 0.000 0.000 17 0 0
20.000 5.000 -1.000 42 0 0
20.000 5.000 0.000 18 0 0
20.000 10.000 -1.000 70 0 0
20.000 10.000 0.000 40 0 0
20.000 15.000 -1.000 40 0 0
20.000 15.000 0.000 28 0 0
20.000 20.000 -1.000 74 0 0
20.000 20.000 0.000 59 0 0
20.000 25.000 -1.000 114 0 0
20.000 25.000 0.000 33 0 0
20.000 30.000 -1.000 120 0 0
20.000 30.000 0.000 9 0 0
20.000 35.000 -1.000 34 0 0
20.000 35.000 0.000 44 0 0
20.000 40.000 -1.000 52 0 0
20.000 40.000 0.000 130 0 0
20.000 45.000 -1.000 124 0 0
20.000 45.000 0.000 15 0 0
25.000 -50.000 -1.000 47 0 0
25.000 -50.000 0.000 88 0 0
25.000 -45.000 -1.000 80 0 0
25.000 -45.000 0.000 60 0 0
25.000 -40.000 -1.000 97 0 0
25.000 -40.000 0.000 43 0 0
25.000 -35.000 -1.000 64 0 0
25.000 -35.000 0.000 28 0 0
25.000 -30.000 -1.000 78 0 0
25.000 -30.000 0.000 12 0 0
25.000 -25.000 -1.000 40 0 0
25.000 -25.000 0.000 24 0 0
25.000 -20.000 -1.000 77 0 0
25.000 -20.000 0.000 78 0 0
25.000 -15.000 -1.000 82 0 0
25.000 -15.000 0.000 58 0 0
25.000 -10.000 -1.000 60 0 0
25.000 -10.000 0.000 56 0 0
25.000 -5.000 -1.000 44 0 0
25.000 -5.000 0.000 31 0 0
25.000 0.000 -1.000 36 0 0
25.000 0.000 0.000 20 0 0
25.000 5.000 -1.000 41 0 0
25.000 5.000 0.000 32 0 0
25.000 10.000 -1.000 61 0 0
25.000 10.000 0.000 14 0 0
25.000 15.000 -1.000 79 0 0
25.000 15.000 0.000 132 0 0
25.000 20.000 -1.000 113 0 0
25.000 20.000 0.000 77 0 0
25.000 25.000 -1.000 53 0 0
25.000 25.000 0.000 101 0 0
25.000 30.000 -1.000 100 0 0
25.000 30.000 0.000 116 0 0
25.000 35.000 -1.000 104 0 0
25.000 35.000 0.000 11 0 0
25.000 40.000 -1.000 82 0 0
25.000 40.000 0.000 92 0 0
25.000 45.000 -1.000 124 0 0
25.000 45.000 0.000 74 0 0
30.000 -50.000 -1.000 162 0 0
30.000 -50.000 0.000 52 0 0
30.000 -45.000 -1.000 45 0 0
30.000 -45.000 0.000 69 0 0
30.000 -40.000 -1.000 158 0 0
30.000 -40.000 0.000 92 0 0
30.000 -35.000 -1.000 107 0 0
30.000 -35.000 0.000 85 0 0
30.000 -30.000 -1.000 73 0 0
30.000 -30.000 0.000 41 0 0
30.000 -25.000 -1.000 141 0 0
30.000 -25.000 0.000 88 0 0
30.000 -20.000 -1.000 107 0 0
30.000 -20.000 0.000 79 0 0
30.000 -15.000 -1.000 60 0 0
30.000 -15.000 0.000 58 0 0
30.000 -10.000 -1.000 61 0 0
30.000 -10.000 0.000 18 0 0
30.000 -5.000 -1.000 47 0 0
30.000 -5.000 0.000 39 0 0
30.000 0.000 -1.000 36 0 0
30.000 0.000 0.000 38 0 0
30.000 5.000 -1.000 65 0 0
30.000 5.000 0.000 45 0 0
30.000 10.000 -1.000 77 0 0
30.000 10.000 0.000 28 0 0
30.000 15.000 -1.000 36 0 0
30.000 15.000 0.000 116 0 0
30.000 20.000 -1.000 81 0 0
30.000 20.000 0.000 92 0 0
30.000 25.000 -1.000 116 0 0
30.000 25.000 0.000 14 0 0
30.000 30.000 -1.000 98 0 0
30.000 30.000 0.000 82 0 0
30.000 35.000 -1.000 46 0 0
30.000 35.000 0.000 37 0 0
30.000 40.000 -1.000 78 0 0
30.000 40.000 0.000 53 0 0
30.000 45.000 -1.000 112 0 0
30.000 45.000 0.000 41 0 0
35.000 -50.000 -1.000 102 0 0
35.000 -50.000 0.000 55 0 0
35.000 -45.000 -1.000 136 0 0
35.000 -45.000 0.000 164 0 0
35.000 -40.000 -1.000 57 0 0
35.000 -40.000 0.000 131 0 0
35.000 -35.000 -1.000 109 0 0
35.000 -35.000 0.000 74 0 0
35.000 -30.000 -1.000 108 0 0
35.000 -30.000 0.000 76 0 0
35.000 -25.000 -1.000 157 0 0
35.000 -25.000 0.000 62 0 0
35.000 -20.000 -1.000 30 0 0
35.000 -20.000 0.000 90 0 0
35.000 -15.000 -1.000 39 0 0
35.000 -15.000 0.000 27 0 0
35.000 -10.000 -1.000 92 0 0
35.000 -10.000 0.000 32 0 0
35.000 -5.000 -1.000 62 0 0
35.000 -5.000 0.000 14 0 0
35.000 0.000 -1.000 60 0 0
35.000 0.000 0.000 39 0 0
35.000 5.000 -1.000 74 0 0
35.000 5.000 0.000 29 0 0
35.000 10.000 -1.000 88 0 0
35.000 10.000 0.000 35 0 0
35.000 15.000 -1.000 99 0 0
35.000 15.000 0.000 16 0 0
35.000 20.000 -1.000 168 0 0
35.000 20.000 0.000 19 0 0
35.000 25.000 -1.000 109 0 0
35.000 25.000 0.000 114 0 0
35.000 30.000 -1.000 91 0 0
35.000 30.000 0.000 81 0 0
35.000 35.000 -1.000 124 0 0
35.000 35.000 0.000 100 0 0
35.000 40.000 -1.000 86 0 0
35.000 40.000 0.000 90 0 0
35.000 45.000 -1.000 92 0 0
35.000 45.000 0.000 20 0 0
40.000 -50.000 -1.000 217 0 0
40.000 -50.000 0.000 169 0 0
40.000 -45.000 -1.000 166 0 0
40.000 -45.000 0.000 69 0 0
40.000 -40.000 -1.000 112 0 0
40.000 -40.000 0.000 103 0 0
40.000 -35.000 -1.000 55 0 0
40.000 -35.000 0.000 151 0 0
40.000 -30.000 -1.000 222 0 0
40.000 -30.000 0.000 29 0 0
40.000 -25.000 -1.000 148 0 0
40.000 -25.000 0.000 163 0 0
40.000 -20.000 -1.000 143 0 0
40.000 -20.000 0.000 173 0 0
40.000 -15.000 -1.000 88 0 0
40.000 -15.000 0.000 45 0 0
40.000 -10.000 -1.000 69 0 0
40.000 -10.000 0.000 62 0 0
40.000 -5.000 -1.000 49 0 0
40.000 -5.000 0.000 35 0 0
40.000 0.000 -1.000 75 0 0
40.000 0.000 0.000 28 0 0
40.000 5.000 -1.000 89 0 0
40.000 5.000 0.000 37 0 0
40.000 10.000 -1.000 107 0 0
40.000 10.000 0.000 26 0 0
40.000 15.000 -1.000 60 0 0
40.000 15.000 0.000 67 0 0
40.000 20.000 -1.000 88 0 0
40.000 20.000 0.000 138 0 0
40.000 25.000 -1.000 154 0 0
40.000 25.000 0.000 79 0 0
40.000 30.000 -1.000 141 0 0
40.000 30.000 0.000 98 0 0
40.000 35.000 -1.000 141 0 0
40.000 35.000 0.000 81 0 0
40.000 40.000 -1.000 96 0 0
40.000 40.000 0.000 112 0 0
40.000 45.000 -1.000 166 0 0
40.000 45.000 0.000 104 0 0
45.000 -50.000 -1.000 139 0 0
45.000 -50.000 0.000 100 0 0
45.000 -45.000 -1.000 87 0 0
45.000 -45.000 0.000 95 0 0
45.000 -40.000 -1.000 171 0 0
45.000 -40.000 0.000 25 0 0
45.000 -35.000 -1.000 169 0 0
45.000 -35.000 0.000 63 0 0
45.000 -30.000 -1.000 188 0 0
45.000 -30.000 0.000 132 0 0
45.000 -25.000 -1.000 66 0 0
45.000 -25.000 0.000 110 0 0
45.000 -20.000 -1.000 91 0 0
45.000 -20.000 0.000 119 0 0
45.000 -15.000 -1.000 113 0 0
45.000 -15.000 0.000 71 0 0
45.000 -10.000 -1.000 91 0 0
45.000 -10.000 0.000 64 0 0
45.000 -5.000 -1.000 62 0 0
45.000 -5.000 0.000 30 0 0
45.000 0.000 -1.000 14 0 0
45.000 0.000 0.000 80 0 0
45.000 5.000 -1.000 29 0 0
45.000 5.000 0.000 59 0 0
45.000 10.000 -1.000 104 0 0
45.000 10.000 0.000 40 0 0
45.000 15.000 -1.000 141 0 0
45.000 15.000 0.000 52 0 0
45.000 20.000 -1.000 51 0 0
45.000 20.000 0.000 69 0 0
45.000 25.000 -1.000 34 0 0
45.000 25.000 0.000 49 0 0
45.000 30.000 -1.000 151 0 0
45.000 30.000 0.000 142 0 0
45.000 35.000 -1.000 94 0 0
45.000 35.000 0.000 94 0 0
45.000 40.000 -1.000 152 0 0
45.000 40.000 0.000 32 0 0
45.000 45.000 -1.000 178 0 0
45.000 45.000 0.000 82 0 0
